<svg id="e5wAMmRNqFZ1" xmlns="http://www.w3.org/2000/svg" xmlns:xlink="http://www.w3.org/1999/xlink" viewBox="0 0 1080 1080" shape-rendering="geometricPrecision" text-rendering="geometricPrecision">
<style><![CDATA[
#e5wAMmRNqFZ16_ts {animation: e5wAMmRNqFZ16_ts__ts 6000ms infinite}@keyframes e5wAMmRNqFZ16_ts__ts { 0% {transform: translate(231.175011px,703.139984px) scale(0.810333,0.810333)} 43.333333% {transform: translate(231.175011px,703.139984px) scale(1,1)} 100% {transform: translate(231.175011px,703.139984px) scale(1,1)}} #e5wAMmRNqFZ29_ts {animation: e5wAMmRNqFZ29_ts__ts 6000ms infinite}@keyframes e5wAMmRNqFZ29_ts__ts { 0% {transform: translate(866.325012px,329.264999px) scale(0.833655,0.833655)} 56% {transform: translate(866.325012px,329.264999px) scale(1,1)} 100% {transform: translate(866.325012px,329.264999px) scale(1,1)}} #e5wAMmRNqFZ51_ts {animation: e5wAMmRNqFZ51_ts__ts 6000ms infinite}@keyframes e5wAMmRNqFZ51_ts__ts { 0% {transform: translate(182.269997px,393.320023px) scale(1.082326,1.082326)} 46.666667% {transform: translate(182.269997px,393.320023px) scale(0.944931,0.944931)} 56% {transform: translate(182.269997px,393.320023px) scale(1.073166,1.073166)} 56.666667% {transform: translate(182.269997px,393.320023px) scale(1.082326,1.082326)} 100% {transform: translate(182.269997px,393.320023px) scale(1.082326,1.082326)}} #e5wAMmRNqFZ65_ts {animation: e5wAMmRNqFZ65_ts__ts 6000ms infinite}@keyframes e5wAMmRNqFZ65_ts__ts { 0% {transform: translate(858.559998px,657.840027px) scale(1,1)} 50% {transform: translate(858.559998px,657.840027px) scale(0.766367,0.766367)} 100% {transform: translate(858.559998px,657.840027px) scale(0.766367,0.766367)}} #e5wAMmRNqFZ91_to {animation: e5wAMmRNqFZ91_to__to 6000ms infinite}@keyframes e5wAMmRNqFZ91_to__to { 0% {transform: translate(585.4534px,632.461395px)} 56.666667% {transform: translate(610.4534px,632.461395px)} 100% {transform: translate(610.4534px,632.461395px)}} #e5wAMmRNqFZ119_to {animation: e5wAMmRNqFZ119_to__to 6000ms infinite}@keyframes e5wAMmRNqFZ119_to__to { 0% {transform: translate(390.179199px,353.33px)} 51.666667% {transform: translate(443.329992px,362.580011px)} 100% {transform: translate(443.329992px,362.580011px)}}
]]></style>
<g><path d="M718.97,356.43c.19.07.36.18.5.32.12.14.23.3.32.46.07.19.11.38.11.57v7.28c0,.39-.18.79-.43,1.04-.29.29-.64.43-1.04.43s-.75-.14-1.04-.43c-.29-.25-.43-.64-.43-1.04v-.04c-.57.11-1.14.04-1.64-.21s-.89-.68-1.11-1.18c-.25-.54-.29-1.11-.14-1.64.18-.54.5-1,.96-1.32-.18-.29-.25-.57-.29-.89c0-.29.07-.61.21-.89.14-.25.36-.5.64-.64.25-.14.57-.25.86-.25.05,0,.1.01.14.04h.14c0,0,.08.01.11.04.05,0,.1.01.14.04v-.07c0,0-.04-.06-.04-.11v-.14c0-.19.04-.38.11-.57.07-.17.18-.32.32-.46s.3-.25.46-.32c.19-.07.38-.11.57-.11s.37.04.54.11Z" fill="#fff"/><path d="M722.15,356.32c.19,0,.38.04.57.11.17.07.32.18.46.32s.25.3.32.46c.07.19.11.38.11.57c0,.02,0,.05,0,.07s0,.06,0,.11c-.02.02-.04.05-.04.07v.07c0,0,.06-.01.11-.04.05,0,.1-.01.14-.04h.25c.32,0,.64.07.89.21.29.18.5.39.64.68.14.25.21.57.18.89c0,.29-.11.61-.29.86.43.29.75.71.93,1.21.14.5.14,1.04,0,1.5-.18.5-.46.93-.89,1.21-.43.32-.93.46-1.46.46h-.36c0,0-.08-.04-.11-.04v0c0,0,0,.04,0,.04v0c0,.39-.18.79-.43,1.04-.29.29-.64.43-1.04.43s-.75-.14-1.04-.43c-.29-.25-.43-.64-.43-1.04v-7.28c0-.19.04-.38.11-.57.07-.17.18-.32.32-.46s.3-.25.46-.32c.19-.07.38-.11.57-.11Z" fill="#fff"/></g><g transform="translate(0 0.000015)"><g><polygon points="1010.21,670.61 626.4,670.61 626.4,668.46 1008.07,668.46 1008.07,486.38 875.97,486.38 875.97,414.62 878.11,414.62 878.11,484.24 1010.21,484.24 1010.21,670.61" fill="#373133"/><polygon points="241.88,651.08 239.74,651.08 239.74,527.79 175.83,527.79 175.83,458.17 177.97,458.17 177.97,525.65 241.88,525.65 241.88,651.08" fill="#373133"/><polygon points="177.97,353.56 175.83,353.56 175.83,191.83 867.04,191.83 867.04,242.59 864.9,242.59 864.9,193.97 177.97,193.97 177.97,353.56" fill="#373133"/></g><g><rect width="324.9" height="649.79" rx="34.17" ry="34.17" transform="translate(362.56 238.38)" fill="#e7e9f5"/><rect width="301" height="626.27" rx="29.86" ry="29.86" transform="translate(374.51 250.14)" fill="#02435a"/><path d="M411.01,261.82h35.89c.58,11.33,9.94,20.33,21.41,20.33h114.9c11.47,0,20.83-9,21.41-20.33h35.89c13.37,0,24.22,10.84,24.22,24.22v555.99c0,13.37-10.84,24.22-24.22,24.22h-229.51c-13.37,0-24.22-10.84-24.22-24.22v-555.99c0-13.37,10.84-24.22,24.22-24.22Z" fill="#fff"/><rect width="42.79" height="5.76" rx="0" ry="0" transform="translate(511.94 264.19)" fill="#fff"/><path d="M496.31,267.07c0,2.5,2.03,4.53,4.53,4.53s4.53-2.03,4.53-4.53-2.03-4.53-4.53-4.53-4.53,2.03-4.53,4.53Z" fill="#fff"/></g><g id="e5wAMmRNqFZ16_ts" transform="translate(231.175011,703.139984) scale(0.810333,0.810333)"><g transform="translate(-231.175011,-703.139984)"><g><rect width="162.81" height="150.58" rx="5.53" ry="5.53" transform="translate(149.77 627.85)" fill="#e7e9f5"/></g><rect width="97.81" height="7.13" rx="0" ry="0" transform="translate(181.96 635.19)" fill="#02435a"/><rect width="97.19" height="116.76" rx="0" ry="0" transform="translate(158.73 651.08)" fill="#fff"/><rect width="66.83" height="5.71" rx="0" ry="0" transform="translate(173.91 661.78)" fill="#e7e9f5"/><rect width="66.83" height="5.71" rx="0" ry="0" transform="translate(174.01 671.86)" fill="#e7e9f5"/><rect width="40.34" height="14.67" rx="0" ry="0" transform="translate(263.67 669.62)" fill="#02435a"/><rect width="40.34" height="22.11" rx="0" ry="0" transform="translate(263.67 722.19)" fill="#02435a"/><rect width="28.02" height="14.67" rx="0" ry="0" transform="translate(276 691.63)" fill="#02435a"/><rect width="16.71" height="5.09" rx="0" ry="0" transform="translate(287.31 709.36)" fill="#02435a"/><rect width="16.71" height="5.09" rx="0" ry="0" transform="translate(287.31 748.68)" fill="#02435a"/><rect width="16.71" height="5.09" rx="0" ry="0" transform="translate(263.57 748.58)" fill="#02435a"/></g></g><g id="e5wAMmRNqFZ29_ts" transform="translate(866.325012,329.264999) scale(0.833655,0.833655)"><g transform="translate(-866.325012,-329.264999)"><rect width="274.91" height="207.03" rx="9.44" ry="9.44" transform="translate(728.87 225.75)" fill="#e7e9f5"/><rect width="164.02" height="89.91" rx="0" ry="0" transform="translate(742.41 272.81)" fill="#fff"/><rect width="171.27" height="10.88" rx="0" ry="0" transform="translate(771.62 242.59)" fill="#02435a"/><circle r="5.57" transform="translate(966.34 248.16)" fill="#02435a"/><circle r="5.57" transform="translate(981.11 248.16)" fill="#02435a"/><rect width="37.57" height="29.8" rx="0" ry="0" transform="translate(916.2 272.64)" fill="#02435a"/><rect width="22.54" height="5.33" rx="0" ry="0" transform="translate(960.77 272.64)" fill="#02435a"/><rect width="33.68" height="5.33" rx="0" ry="0" transform="translate(960.77 284.68)" fill="#02435a"/><rect width="22.54" height="5.33" rx="0" ry="0" transform="translate(960.77 313.35)" fill="#02435a"/><rect width="33.68" height="5.33" rx="0" ry="0" transform="translate(960.77 325.38)" fill="#02435a"/><rect width="22.54" height="5.33" rx="0" ry="0" transform="translate(960.77 353.33)" fill="#02435a"/><rect width="33.68" height="5.33" rx="0" ry="0" transform="translate(960.77 365.37)" fill="#02435a"/><rect width="22.54" height="5.33" rx="0" ry="0" transform="translate(960.77 393.32)" fill="#02435a"/><rect width="33.68" height="5.33" rx="0" ry="0" transform="translate(960.77 405.36)" fill="#02435a"/><rect width="37.57" height="29.8" rx="0" ry="0" transform="translate(916.2 313.07)" fill="#02435a"/><rect width="37.57" height="29.8" rx="0" ry="0" transform="translate(916.2 353.49)" fill="#02435a"/><rect width="37.57" height="29.8" rx="0" ry="0" transform="translate(916.2 393.65)" fill="#02435a"/><rect width="113.23" height="9.59" rx="0" ry="0" transform="translate(741.31 371.37)" fill="#02435a"/><circle r="12.18" transform="translate(753.48 401.68)" fill="#02435a"/><rect width="40.68" height="8.81" rx="0" ry="0" transform="translate(776.03 389.5)" fill="#02435a"/><rect width="19.95" height="11.14" rx="0" ry="0" transform="translate(742.34 242.59)" fill="#02435a"/></g></g><g id="e5wAMmRNqFZ51_ts" transform="translate(182.269997,393.320023) scale(1.082326,1.082326)"><g transform="translate(-182.269997,-393.320023)"><rect width="224.96" height="162.34" rx="6.28" ry="6.28" transform="translate(69.79 312.15)" fill="#e7e9f5"/><rect width="136.81" height="11.56" rx="0" ry="0" transform="translate(105.8 323.59)" fill="#02435a"/><circle r="5.78" transform="translate(89.18 329.37)" fill="#02435a"/><circle r="5.78" transform="translate(276.57 329.37)" fill="#02435a"/><rect width="62.14" height="39.98" rx="0" ry="0" transform="translate(80.99 355.86)" fill="#02435a"/><rect width="47.69" height="6.92" rx="0" ry="0" transform="translate(80.99 401.63)" fill="#02435a"/><rect width="62.14" height="39.98" rx="0" ry="0" transform="translate(153.25 355.86)" fill="#02435a"/><rect width="47.69" height="6.92" rx="0" ry="0" transform="translate(153.25 401.63)" fill="#02435a"/><rect width="62.14" height="39.98" rx="0" ry="0" transform="translate(225.51 355.86)" fill="#02435a"/><rect width="62.14" height="39.98" rx="0" ry="0" transform="translate(80.99 422.1)" fill="#02435a"/><rect width="62.14" height="39.98" rx="0" ry="0" transform="translate(153.25 422.1)" fill="#02435a"/><rect width="62.14" height="39.98" rx="0" ry="0" transform="translate(225.51 422.1)" fill="#02435a"/><rect width="47.69" height="6.92" rx="0" ry="0" transform="translate(225.51 401.63)" fill="#02435a"/></g></g><g id="e5wAMmRNqFZ65_ts" transform="translate(858.559998,657.840027) scale(1,1)"><g transform="translate(-858.559998,-657.840027)"><g><g><path d="M954.64,632.68c0,0-5.74,10,0,18.21h-121.53v-18.21h121.53Z" fill="#e7e9f5"/><path d="M956.61,651.54c0,.45-.18.86-.48,1.16-.29.29-.71.48-1.16.48h-180.8c-3.28,0-5.93-2.65-5.93-5.93v-10.28c0-3.28,2.65-5.93,5.93-5.93h180.8c.91,0,1.64.73,1.64,1.64s-.73,1.64-1.64,1.64h-112.31c-2.2,0-3.98,1.78-3.98,3.98v7.63c0,2.2,1.78,3.98,3.98,3.98h112.31c.91,0,1.64.73,1.64,1.64Z" fill="#ef5251"/></g><path d="M956.58,651.23c.1.57-.09,1.1-.45,1.47-.29.29-.71.48-1.16.48h-113.37c-3.75,0-6.79-3.04-6.79-6.79v-8.55c0-3.75,3.04-6.79,6.79-6.79h113.3c.86,0,1.62.63,1.7,1.48.09.98-.67,1.8-1.63,1.8h-112.31c-2.2,0-3.98,1.78-3.98,3.98v7.63c0,2.2,1.78,3.98,3.98,3.98h112.25c.8,0,1.53.55,1.67,1.34Z" fill="#d24949"/></g><path d="M953.9,688.91c0,0-5.99,15.17,0,28.54h-91.36v-28.54h91.36Z" fill="#e7e9f5"/><path d="M957.17,717.87c.04.67-.21,1.28-.64,1.71-.4.4-.95.65-1.57.65h-192.79c-5.08,0-9.2-4.12-9.2-9.2v-15.89c0-5.08,4.12-9.19,9.2-9.19h192.78c1.17,0,2.19.9,2.22,2.07.04,1.21-.93,2.2-2.13,2.2h-81.9c-4.14,0-7.49,3.35-7.49,7.49v10.61c0,4.13,3.35,7.48,7.48,7.48h81.74c1.18,0,2.21.89,2.29,2.07Z" fill="#1c7b83"/><path d="M957.17,717.87c.04.67-.21,1.28-.64,1.71-.4.4-.95.65-1.57.65h-83.83c-5.67,0-10.26-4.59-10.26-10.26v-13.75c0-5.67,4.59-10.26,10.26-10.26h83.83c1.17,0,2.19.9,2.22,2.07.04,1.21-.93,2.2-2.13,2.2h-81.9c-4.14,0-7.49,3.35-7.49,7.49v10.61c0,4.13,3.35,7.48,7.48,7.48h81.74c1.18,0,2.21.89,2.29,2.07Z" fill="#186569"/><rect width="50.96" height="0.36" rx="0" ry="0" transform="translate(895.69 695.66)" fill="#373133"/><polygon points="924.98,695.66 928.7,712.71 932.6,706.54 932.6,696.93 924.98,695.66" fill="#02435a"/><path d="M943.84,700.09c0,0,0,.03,0,.03v12.54l-7.42-5.57-7.73,5.57v-12.63c0-3.09-3.71-4.38-3.71-4.38h16.39c2.45.72,2.48,4.06,2.47,4.43Z" fill="#02435a"/><path d="M943.84,700.09h-15.15v-.05c0-3.09-3.71-4.38-3.71-4.38h16.39c2.45.72,2.48,4.06,2.47,4.43Z" fill="#5c5da9"/><path d="M964.15,664.04v10.95c0,6.06-4.91,10.97-10.97,10.97h-191.18c-.95,0-1.72-.77-1.72-1.72v-.09c0-.95.77-1.72,1.72-1.72h108.66c4.35,0,7.87-3.53,7.87-7.87v-10.17c0-4.35-3.52-7.87-7.87-7.87h-108.66c-.48,0-.9-.19-1.22-.51-.34-.34-.53-.82-.5-1.34.06-.91.87-1.6,1.79-1.6h191.11c6.06,0,10.97,4.91,10.97,10.97Z" fill="#1c7b83"/><path d="M883.42,662.98v13.08c0,5.47-4.43,9.91-9.91,9.91h-111.51c-.95,0-1.72-.77-1.72-1.72v-.09c0-.95.77-1.72,1.72-1.72h108.66c4.35,0,7.87-3.53,7.87-7.87v-10.17c0-4.35-3.52-7.87-7.87-7.87h-108.66c-.48,0-.9-.19-1.22-.51-.34-.34-.53-.82-.5-1.34.06-.91.87-1.6,1.79-1.6h111.44c5.47,0,9.91,4.43,9.91,9.91Z" fill="#373133"/><rect width="50.96" height="0.36" rx="0" ry="0" transform="translate(772.73 674.17)" fill="#373133"/><rect width="6.52" height="8.27" rx="0" ry="0" transform="translate(787.5 674.1)" fill="#02435a"/><polygon points="790.2,681.34 790.2,707.62 783.05,701.2 776.22,707.62 776.22,682.38 790.2,681.34" fill="#a9232a"/><path d="M794.01,674.1h-13.86c0,0,0,6.21-3.93,8.27h13.86c0,0,3.93-1.03,3.93-8.27Z" fill="#ef5251"/><path d="M927.93,599.29c0,0-4.76,13.35,0,27.95h-120.21v-27.46l120.21-.49Z" fill="#e7e9f5"/><path d="M813.3,595.45h114.8c1.31,0,2.38,1.06,2.38,2.38v0c0,1.31-1.06,2.38-2.38,2.38h-113.69c-3.29,0-5.96,2.67-5.96,5.96v14c0,3.29,2.67,5.96,5.96,5.96h113.69c1.31,0,2.38,1.06,2.38,2.38v.16c0,1.31-1.06,2.38-2.38,2.38h-114.8c-4.76,0-8.62-3.86-8.62-8.62v-18.34c0-4.76,3.86-8.62,8.62-8.62Z" fill="#02435a"/><rect width="50.96" height="0.36" rx="0" ry="0" transform="translate(861.6 617.94)" fill="#373133"/><rect width="5.37" height="8.22" rx="0" ry="0" transform="translate(890.62 617.94)" fill="#02435a"/><polygon points="894.32,625.13 894.32,646.54 900.69,640.17 907.19,646.54 907.19,626.15 894.32,625.13" fill="#186569"/><path d="M890.62,617.94h12.66c0,0,0,6.16,3.9,8.22h-12.66c0,0-3.9-1.03-3.9-8.22Z" fill="#1c7b83"/></g></g><g id="e5wAMmRNqFZ91_to" transform="translate(585.4534,632.461395)"><g transform="translate(-585.4534,-632.461395)"><path d="M775.4,509.88c1.61,9.52-10.42,17.84-10.42,17.84-5.97,16.29-18.19,20.1-18.19,20.1L683.02,720.59c0,0-7.98,12.17-25.71,9.43-3.19-.5-6.71-1.48-10.55-3.1l-55.85-30.6l48.32-82.83l25.81,20.47l5.5-10.3l46.41-86.94l4.86-23.71l23.53-31.68l33.37-40.67c6.88,10.8-5.01,22.39-5.01,22.39-2.68,7.3-12.07,23.36-12.07,23.36c2.04-.61,3.38-.31,5.15.9c7.98,5.46,5.61,10.07,5.61,10.07c7.81,6.38,3.01,12.5,3.01,12.5Z" fill="#faba9d"/><rect width="21.62" height="1.43" rx="0" ry="0" transform="matrix(.619779-.784776 0.784776 0.619779 758.190262 514.004444)" fill="#373133"/><rect width="14.49" height="1.43" rx="0" ry="0" transform="matrix(.659215-.751955 0.751955 0.659215 766.274957 518.510588)" fill="#373133"/><path d="M748.59,527.43l-1.1-.91c8.55-10.26,1.75-25.89,1.68-26.05l-.32-.72.75-.25c8.07-2.69,10.89-8,11.73-10.15l-20.99,1.41-.1-1.43l22.99-1.55-.21.93c-.08.34-1.92,8.12-12.26,11.88c1.3,3.31,5.95,17.07-2.19,26.83Z" fill="#373133"/><polygon points="590.9,764.15 599.2,866.96 509.5,866.96 494.5,780.57 590.9,764.15" fill="#0a5466" stroke="#014359" stroke-width="2" stroke-linecap="round" stroke-miterlimit="10"/><polygon points="544.49,782.71 529.93,866.97 430.24,866.97 434.52,780.59 544.49,782.71" fill="#142837"/><g><path d="M514.4,494.78c0,0-12.81-3.74-12.61-24.76l12.31,1.9.3,22.86Z" fill="#373133"/><path d="M579.61,429.06c0,0,3.26,16.16-5.93,26.53l-7.9-24.81l13.84-1.72Z" fill="#373133"/><path d="M576.48,483.54c-.31,24.04-11.63,28.54-16.01,29.38-1.06.2-1.71.19-1.71.19l.33,11.99.95,34.46-54.9-5.68l4.79-74.63c0,0-11.64-1.61-13.8-15.4-1.22-7.83-.44-11.75,5.71-13.32c15.05-3.83,24.55-26.93,24.55-26.93l46.28,2.49c0,0,4.04,38.3,3.8,57.44Z" fill="#faba9d"/><path d="M589.38,402.16c0,0,11.71,33.57-21.09,32.81l-39.04-1.13c0,0-.12,12.39-9.77,15.68l1.49,10.91c-2.59-.32-5.8-.55-9.02-.79c0,0-1.25-4.94-2.24-5.99c0,0-5.52-5.16-11.66-1.38c0,0-14.91-31.79,14.77-32.54c0,0,3.87-27.95,49.16-17.84c6.69,1.49,21.23-9.76,27.4.27Z" fill="#142837"/></g><path d="M559.14,526.26c0,0,.14,44.73-54.84-3.11l-68.46,26.64c-12.28,5.54-20.87,16.98-22.76,30.32c0,0-4.94,32.64-11.06,71.4-.75,4.77-1.35,10.34-1.82,15.24-.37,3.87,41.77-.75,41.46,3.14-3.57,45.7-9.28,122.82-9.28,122.82c92.83,15,164.37-6.87,164.37-6.87l-2.14-85.66l32.11,15.02L654.9,609.37l-12.7-20.64-21.45-34.87c-5.09-8.28-13.08-14.38-22.4-17.12l-39.2-10.48Z" fill="#02435a"/><path d="M588.39,613.3c0,0,3.06-20.12,38.32-16.7c30.46,2.95,38.32,17.69,38.32,17.69l-76.64-.98Z" fill="#e7e9f5"/><path d="M585.44,611.34c0-.98,5.9-6.88-5.9-20.63-11.79-13.76-35.37-25.55-35.37-25.55l-17.69,9.83l58.96,36.36Z" fill="#e7e9f5"/><polygon points="530.42,565.15 524.44,565.93 524.52,570.07 579.55,606.42 598.22,611.34 667,612.32 665.59,610.48 599.2,607.41 580.53,602.49 530.42,565.15" fill="#373133"/><path d="M670.53,623.66L657.3,730.02c-3.19-.5-6.71-1.48-10.55-3.1l-55.85-30.6l48.32-82.83l25.81,20.47l5.5-10.3Z" fill="#e7a78b"/><polygon points="495.53,673.73 551.54,715.98 563.17,718.89 567.26,719.91 640.96,720.9 667.06,612.41 599.65,609.9 598.71,609.86 581.02,605.93 524.03,565.65 495.53,673.73" fill="#1c7b83"/><polygon points="565.79,626.08 526.48,599.54 523.54,612.32 560.88,640.81 565.79,626.08" fill="#d7e3f4"/><rect width="113.93" height="1.43" rx="0" ry="0" transform="matrix(.258819-.965926 0.965926 0.258819 551.328073 715.287152)" fill="#373133"/><rect width="115.67" height="1.43" rx="0" ry="0" transform="matrix(.280164-.959952 0.959952 0.280164 566.059556 720.137679)" fill="#373133"/><polygon points="567.46,721.03 571.55,722.05 640.96,720.9 667.06,612.41 599.65,609.9 567.46,721.03" fill="#373133"/><path d="M607.27,701.09l-8.63,13.34-33,21.68c0,0-8.48,2.83-15.08,2.83l-115.41,43.7c-31.75,7.93-41.64-11.61-41.64-11.61-8.5-15.47.77-75.43,5.51-102.34c1.42-8.1,2.44-13.2,2.44-13.2h61.34l-1.66,7.3-14.1,61.89l82.78-13.17-1.89-22.54l3.77-24.51c0,0,7.55-1.89,9.43,9.43l1.89,15.09l16.97-21.69l17.24-13.49c2.46-1.92,6-1.49,7.91.98c1.78,2.28,1.54,5.55-.57,7.54l-14.2,13.45-6.61,12.26l14.15-13.2l13.38-12.64c2-1.89,5.13-1.84,7.08.1c1.79,1.79,1.98,4.61.47,6.63l-11.5,15.34-9.43,13.2l10.37-8.48l10.15-11.6c1.6-1.83,4.46-1.79,6.01.08c1.05,1.26,1.21,3.04.4,4.48l-10.91,19.3-8.48,7.54l8.48-3.77l6.24-8.73c1.62-2.27,4.94-2.42,6.76-.3c1.24,1.44,1.38,3.53.35,5.13Z" fill="#faba9d"/><path d="M462.8,655.49l-1.66,7.3-62.12,5.89c1.42-8.1,2.44-13.2,2.44-13.2h61.34Z" fill="#e7a78b"/><path d="M558.77,513.11l.33,11.99c-24.09-7.28-31.23-30.51-31.23-30.51c7.5,12.63,21.55,16.97,32.61,18.33-1.06.2-1.71.19-1.71.19Z" fill="#e7a78b"/><rect width="39.66" height="2.14" rx="0" ry="0" transform="matrix(.234463-.972125 0.972125 0.234463 461.838933 655.029903)" fill="#373133"/><path d="M549.64,488.52h21.42c0,0-6.43,12.85-21.42,0Z" fill="#fff"/></g></g><g><g id="e5wAMmRNqFZ119_to" transform="translate(390.179199,353.33)"><g transform="translate(-402.317734,-373.589996)"><path d="M473.3,329.55c0-12.88-2.6-15.48-15.48-15.48h-106.68c-12.88,0-15.48,2.6-15.48,15.48v62.29c0,12.88,2.6,15.48,15.48,15.48h69.71l37.01,25.79-.04-25.79c12.88,0,15.48-2.6,15.48-15.48v-62.29Z" transform="translate(-2.162264 0)" fill="#fff" fill-rule="evenodd" stroke="#014359" stroke-width="5" stroke-linecap="round" stroke-miterlimit="10"/><g transform="translate(-2.162264 0)"><g><path d="M367.03,350.12c-1.53,0-2.77,1.24-2.77,2.77c0,.22.03.43.08.64-.32-.1-.65-.18-1-.18-1.78,0-3.23,1.45-3.23,3.23c0,.66.2,1.28.54,1.79-1.16.84-1.93,2.2-1.93,3.74c0,2.55,2.06,4.61,4.61,4.61.32,0,.63-.03.93-.09c0,.03,0,.06,0,.09c0,1.53,1.24,2.77,2.77,2.77s2.77-1.24,2.77-2.77v-13.83c0-1.53-1.24-2.77-2.77-2.77" fill="#02435a"/><path d="M374.08,350.12c1.53,0,2.77,1.24,2.77,2.77c0,.22-.03.43-.08.64.32-.1.65-.18,1-.18c1.78,0,3.23,1.45,3.23,3.23c0,.66-.2,1.28-.54,1.79c1.16.84,1.93,2.2,1.93,3.74c0,2.55-2.06,4.61-4.61,4.61-.32,0-.63-.03-.93-.09c0,.03,0,.06,0,.09c0,1.53-1.24,2.77-2.77,2.77s-2.77-1.24-2.77-2.77v-13.83c0-1.53,1.24-2.77,2.77-2.77" fill="#02435a"/></g><g><path d="M400.95,350.12c-1.53,0-2.77,1.24-2.77,2.77c0,.22.03.43.08.64-.32-.1-.65-.18-1-.18-1.78,0-3.23,1.45-3.23,3.23c0,.66.2,1.28.54,1.79-1.16.84-1.93,2.2-1.93,3.74c0,2.55,2.06,4.61,4.61,4.61.32,0,.63-.03.93-.09c0,.03,0,.06,0,.09c0,1.53,1.24,2.77,2.77,2.77s2.77-1.24,2.77-2.77v-13.83c0-1.53-1.24-2.77-2.77-2.77" fill="#02435a"/><path d="M408,350.12c1.53,0,2.77,1.24,2.77,2.77c0,.22-.03.43-.08.64.32-.1.65-.18,1-.18c1.78,0,3.23,1.45,3.23,3.23c0,.66-.2,1.28-.54,1.79c1.16.84,1.93,2.2,1.93,3.74c0,2.55-2.06,4.61-4.61,4.61-.32,0-.63-.03-.93-.09c0,.03,0,.06,0,.09c0,1.53-1.24,2.77-2.77,2.77s-2.77-1.24-2.77-2.77v-13.83c0-1.53,1.24-2.77,2.77-2.77" fill="#02435a"/></g><g><path d="M434.86,350.12c-1.53,0-2.77,1.24-2.77,2.77c0,.22.03.43.08.64-.32-.1-.65-.18-1-.18-1.78,0-3.23,1.45-3.23,3.23c0,.66.2,1.28.54,1.79-1.16.84-1.93,2.2-1.93,3.74c0,2.55,2.06,4.61,4.61,4.61.32,0,.63-.03.93-.09c0,.03,0,.06,0,.09c0,1.53,1.24,2.77,2.77,2.77s2.77-1.24,2.77-2.77v-13.83c0-1.53-1.24-2.77-2.77-2.77" fill="#02435a"/><path d="M441.92,350.12c1.53,0,2.77,1.24,2.77,2.77c0,.22-.03.43-.08.64.32-.1.65-.18,1-.18c1.78,0,3.23,1.45,3.23,3.23c0,.66-.2,1.28-.54,1.79c1.16.84,1.93,2.2,1.93,3.74c0,2.55-2.06,4.61-4.61,4.61-.32,0-.63-.03-.93-.09c0,.03,0,.06,0,.09c0,1.53-1.24,2.77-2.77,2.77s-2.77-1.24-2.77-2.77v-13.83c0-1.53,1.24-2.77,2.77-2.77" fill="#02435a"/></g></g></g></g></g></g><g><path d="M821.98,303.91c.5.19.94.47,1.32.85.31.38.6.79.85,1.23.19.5.28,1.01.28,1.51v19.28c0,1.04-.47,2.08-1.13,2.74-.76.76-1.7,1.13-2.74,1.13s-1.98-.38-2.74-1.13c-.76-.66-1.13-1.7-1.13-2.74v-.09c-1.51.28-3.02.09-4.35-.57-1.32-.66-2.36-1.8-2.93-3.12-.66-1.42-.76-2.93-.38-4.35.47-1.42,1.32-2.65,2.55-3.5-.47-.76-.66-1.51-.76-2.36c0-.76.19-1.61.57-2.36.38-.66.94-1.32,1.7-1.7.66-.38,1.51-.66,2.27-.66.13,0,.25.03.38.09h.38c.13,0,.22.03.28.09.13,0,.25.03.38.09v-.19c-.06-.06-.09-.16-.09-.28v-.38c0-.5.09-1.01.28-1.51.19-.44.47-.85.85-1.23s.79-.66,1.23-.85c.5-.19,1.01-.28,1.51-.28s.98.09,1.42.28Z" fill="#02435a"/><path d="M830.39,303.62c.5,0,1.01.09,1.51.28.44.19.85.47,1.23.85s.66.79.85,1.23c.19.5.28,1.01.28,1.51c0,.06,0,.13,0,.19s0,.16,0,.28c-.06.06-.09.13-.09.19v.19c.06,0,.16-.03.28-.09.13,0,.25-.03.38-.09h.66c.85,0,1.7.19,2.36.57.76.47,1.32,1.04,1.7,1.8.38.66.57,1.51.47,2.36c0,.76-.28,1.61-.76,2.27c1.13.76,1.98,1.89,2.46,3.21.38,1.32.38,2.74,0,3.97-.47,1.32-1.23,2.46-2.36,3.21-1.13.85-2.46,1.23-3.87,1.23h-.94c-.13-.06-.22-.09-.28-.09v0c0,.06,0,.09,0,.09v0c0,1.04-.47,2.08-1.13,2.74-.76.76-1.7,1.13-2.74,1.13s-1.98-.38-2.74-1.13c-.76-.66-1.13-1.7-1.13-2.74v-19.28c0-.5.09-1.01.28-1.51.19-.44.47-.85.85-1.23s.79-.66,1.23-.85c.5-.19,1.01-.28,1.51-.28Z" fill="#02435a"/></g></svg>
