<svg id="ejotw0LqUfX1" xmlns="http://www.w3.org/2000/svg" xmlns:xlink="http://www.w3.org/1999/xlink" viewBox="0 0 1080 1080" shape-rendering="geometricPrecision" text-rendering="geometricPrecision">
<style><![CDATA[
#ejotw0LqUfX14_ts {animation: ejotw0LqUfX14_ts__ts 9999ms linear 1 normal forwards}@keyframes ejotw0LqUfX14_ts__ts { 0% {transform: translate(486.730637px,359.823944px) scale(1,1)} 40% {transform: translate(486.730637px,359.823944px) scale(1.736724,1.736724)} 73.333333% {transform: translate(486.730637px,359.823944px) scale(1,1)} 100% {transform: translate(486.730637px,359.823944px) scale(1,1)}} #ejotw0LqUfX54_to {animation: ejotw0LqUfX54_to__to 9999ms linear 1 normal forwards}@keyframes ejotw0LqUfX54_to__to { 0% {transform: translate(615.073721px,650.662665px)} 83.333333% {transform: translate(757.745px,609.28px)} 100% {transform: translate(757.745px,609.28px)}}
]]></style>
<defs><linearGradient id="ejotw0LqUfX69-fill" x1="261.9216" y1="479.9" x2="264.7192" y2="402.84" spreadMethod="pad" gradientUnits="userSpaceOnUse" gradientTransform="translate(0 0)"><stop id="ejotw0LqUfX69-fill-0" offset="0%" stop-color="#fff"/><stop id="ejotw0LqUfX69-fill-1" offset="10%" stop-color="#f9f9f9"/><stop id="ejotw0LqUfX69-fill-2" offset="22%" stop-color="#e9e9e9"/><stop id="ejotw0LqUfX69-fill-3" offset="36%" stop-color="#cfcfcf"/><stop id="ejotw0LqUfX69-fill-4" offset="51%" stop-color="#ababab"/><stop id="ejotw0LqUfX69-fill-5" offset="67%" stop-color="#7c7c7c"/><stop id="ejotw0LqUfX69-fill-6" offset="83%" stop-color="#434343"/><stop id="ejotw0LqUfX69-fill-7" offset="100%" stop-color="#010101"/><stop id="ejotw0LqUfX69-fill-8" offset="100%" stop-color="#000"/></linearGradient><linearGradient id="ejotw0LqUfX71-fill" x1="215.8392" y1="376.92" x2="332.4024" y2="414.1" spreadMethod="pad" gradientUnits="userSpaceOnUse" gradientTransform="translate(0 0)"><stop id="ejotw0LqUfX71-fill-0" offset="0%" stop-color="#fff"/><stop id="ejotw0LqUfX71-fill-1" offset="10%" stop-color="#f9f9f9"/><stop id="ejotw0LqUfX71-fill-2" offset="22%" stop-color="#e9e9e9"/><stop id="ejotw0LqUfX71-fill-3" offset="36%" stop-color="#cfcfcf"/><stop id="ejotw0LqUfX71-fill-4" offset="51%" stop-color="#ababab"/><stop id="ejotw0LqUfX71-fill-5" offset="67%" stop-color="#7c7c7c"/><stop id="ejotw0LqUfX71-fill-6" offset="83%" stop-color="#434343"/><stop id="ejotw0LqUfX71-fill-7" offset="100%" stop-color="#010101"/><stop id="ejotw0LqUfX71-fill-8" offset="100%" stop-color="#000"/></linearGradient><linearGradient id="ejotw0LqUfX78-fill" x1="254.6044" y1="641.77" x2="234.0228" y2="663.19" spreadMethod="pad" gradientUnits="userSpaceOnUse" gradientTransform="translate(0 0)"><stop id="ejotw0LqUfX78-fill-0" offset="0%" stop-color="#fff"/><stop id="ejotw0LqUfX78-fill-1" offset="100%" stop-color="#000"/></linearGradient></defs><g style="isolation:isolate"><g><g><g><g><path d="M965.78,162.37v405.74c0,3.52-2.86,6.38-6.38,6.38h-703.64c-3.52,0-6.38-2.86-6.38-6.38v-405.74c0-3.54,2.86-6.38,6.38-6.38h703.64c3.52,0,6.38,2.85,6.38,6.38Z" fill="#e7e9f5"/><rect width="221.58" height="316.26" rx="0" ry="0" transform="translate(726.79 258.23)" fill="#02435a"/><path d="M965.78,162.36v28.99h-716.41v-28.99c0-3.54,2.86-6.38,6.38-6.38h703.65c3.52,0,6.38,2.85,6.38,6.38Z" fill="#02435a"/><rect width="221.57" height="411.34" rx="0" ry="0" transform="translate(718.87 247.07)" fill="#02435a"/><g><g><rect width="431.96" height="225.54" rx="0" ry="0" transform="translate(270.9 247.07)" fill="#fff"/><g id="ejotw0LqUfX14_ts" transform="translate(486.730637,359.823944) scale(1,1)"><path d="M470.22,337.71v44.23c0,1.05,1.19,1.65,2.03,1.03l30.47-22.33c.7-.51.69-1.56,0-2.07l-30.47-21.9c-.84-.61-2.02,0-2.02,1.04Z" transform="translate(-486.730637,-359.823944)" fill="#02435a"/></g></g><g><rect width="431.96" height="7.12" rx="0" ry="0" transform="translate(270.9 454.46)" fill="#e7e9f5"/><rect width="177.36" height="7.12" rx="0" ry="0" transform="translate(270.9 454.46)" fill="#02435a"/><circle r="5.82" transform="translate(422.21 458.02)" fill="#02435a"/></g></g><rect width="383.82" height="21.34" rx="0" ry="0" transform="translate(270.9 489.47)" fill="#02435a"/><rect width="112.98" height="21.34" rx="0" ry="0" transform="translate(270.9 535.66)" fill="#02435a"/><rect width="82.47" height="21.34" rx="7.37" ry="7.37" transform="translate(620.39 535.66)" fill="#142837"/><rect width="80.6" height="21.34" rx="7.37" ry="7.37" transform="translate(270.9 209.12)" fill="#142837"/><rect width="278.63" height="21.34" rx="0" ry="0" transform="translate(376.09 209.12)" fill="#02435a"/><rect width="99.56" height="21.34" rx="7.37" ry="7.37" transform="translate(840.69 209.12)" fill="#02435a"/><g><rect width="68.11" height="9.85" rx="0" ry="0" transform="translate(795.18 267.08)" fill="#02435a"/><rect width="130.89" height="9.85" rx="0" ry="0" transform="translate(795.18 282.67)" fill="#e7e9f5"/><rect width="54.57" height="36.93" rx="0" ry="0" transform="translate(730.46 262.16)" fill="#fff"/></g><g><rect width="68.11" height="9.85" rx="0" ry="0" transform="translate(795.18 322.47)" fill="#02435a"/><rect width="130.89" height="9.85" rx="0" ry="0" transform="translate(795.18 338.06)" fill="#e7e9f5"/><rect width="54.57" height="36.93" rx="0" ry="0" transform="translate(730.46 317.55)" fill="#fff"/></g><g><rect width="68.11" height="9.85" rx="0" ry="0" transform="translate(795.18 377.86)" fill="#02435a"/><rect width="130.89" height="9.85" rx="0" ry="0" transform="translate(795.18 393.45)" fill="#e7e9f5"/><rect width="54.57" height="36.93" rx="0" ry="0" transform="translate(730.46 372.94)" fill="#fff"/></g><g><rect width="68.11" height="9.85" rx="0" ry="0" transform="translate(795.18 433.25)" fill="#02435a"/><rect width="130.89" height="9.85" rx="0" ry="0" transform="translate(795.18 448.85)" fill="#e7e9f5"/><rect width="54.57" height="36.93" rx="0" ry="0" transform="translate(730.46 428.33)" fill="#fff"/></g><g><rect width="68.11" height="9.85" rx="0" ry="0" transform="translate(795.18 488.65)" fill="#02435a"/><rect width="130.89" height="9.85" rx="0" ry="0" transform="translate(795.18 504.24)" fill="#e7e9f5"/><rect width="54.57" height="36.93" rx="0" ry="0" transform="translate(730.46 483.72)" fill="#fff"/></g><g><rect width="68.11" height="9.85" rx="0" ry="0" transform="translate(795.18 544.04)" fill="#02435a"/><rect width="130.89" height="9.85" rx="0" ry="0" transform="translate(795.18 559.63)" fill="#e7e9f5"/><rect width="54.57" height="36.93" rx="0" ry="0" transform="translate(730.46 539.11)" fill="#fff"/></g><g><rect width="68.11" height="9.85" rx="0" ry="0" transform="translate(795.18 599.43)" fill="#02435a"/><rect width="130.89" height="9.85" rx="0" ry="0" transform="translate(795.18 615.02)" fill="#e7e9f5"/><rect width="54.57" height="36.93" rx="0" ry="0" transform="translate(730.46 594.51)" fill="#fff"/></g></g><rect width="838.67" height="31.18" rx="0" ry="0" transform="matrix(-1 0 0-1 965.78 733.49)" fill="#02435a"/></g><g id="ejotw0LqUfX54_to" transform="translate(615.073721,650.662665)"><g transform="translate(-731.518249,-609.357335)"><g><g opacity="0.1"><polyline points="169.8,870.09 169.7,870 167.45,871.99" fill="#010101"/><line x1="214.75" y1="924.02" x2="217" y2="922.12" fill="#010101"/><path d="M179.2,469.43c6.86-1.72,20.78-3.26,31.79-4.43.09,0,.09-.09.09-.09c1.98-1.72,3.29-3.44,4.33-5.16-3.29-1.18-8.37-4.98-16.27-12.4-7.99-7.69,5.36-11.94,3.01-34.47-3.39-16.2-1.32-27.51,20.12-41.35c12.6-4.61,23.7.72,32.26,6.06c3.1,1.99,5.92,3.89,8.28,5.43c28.96,1.09,19.65,18.46,12.51,27.24-.47.54-.94,1.09-1.41,1.63-3.01,1.54-4.51,3.08-7.43,3.62-.09,18.55-5.17,37.55-13.54,39.54-.09.54-.28,1-.28,1.54-1.03,5.07-.38,9.59,4.23,12.12c12.98,3.35,25.01,7.24,29.53,8.14c6.3,2.26,11.85,9.23,16.55,19.09c2.35,4.89,4.42,10.5,6.39,16.56c3.86,11.94,6.86,25.7,9.03,39.27.94,5.61,1.69,11.22,2.35,16.56.56,5.52,1.03,10.95,1.41,16.02.19,3.44,1.69,12.21,3.95,23.34.75,4.07,1.6,8.32,2.54,12.85l26.8-3.17c5.45-.63,8.46,3.53,6.68,9.23l-6.86,21.81-11.47,36.83c-.94,2.99-3.01,5.79-5.55,7.87c1.13,1,2.26,1.99,3.29,2.99c24.83,22.89,32.07,45.6,16.64,66.32h-96.01c-2.44-6.88-4.7-13.39-6.58-19.36-37.33-16.2-71.75-17.64-85.39-46.96-4.04-8.6-6.21-19.63-6.11-34.2-.56-.45-.94-.9-1.03-1.36-.19-3.62-.28-7.69-.28-12.12v-.72c-24.64-21.44-48.71-43.52-48.52-61.53.19-17.83,45.7-116.72,64.98-116.72ZM293.64,604.34c-2.73-10.13-4.61-21.44-6.02-33.66.19,12.58.28,25.15.28,37.01v17.64l10.91-1.27-4.33-16.38-.85-3.35Zm-129.59-2.08c.09-2.35.28-4.7.38-7.06v-.09c.38-5.43.75-10.95,1.03-16.47l.09-.09v-.09c.38-5.79.85-11.49,1.32-17.19l-15.42,24.52l12.6,16.47Z" fill="#010101"/></g><path d="M248.23,839.87c0,0-7.7,8-7.58,12.63.12,4.62-25.08-14.83-25.08-14.83s11.28-3.82,12.84-11.72s19.82,13.92,19.82,13.92Z" fill="#edb6a4"/><path d="M246.1,900.3l-47.23-51.99c2.23-8.51,8.43-13.19,17.71-14.89c7.16,9.07,15.26,16.33,25.02,20.38.34,11.68,4.98,25.65,11.52,40.61c1.77,5.09-1.33,6.48-7.01,5.89Z" fill="#142837"/><polygon points="196.47,850.17 243.78,902.25 246.1,900.3 198.79,848.22 196.47,850.17" fill="#02435a"/><path d="M346.1,904.67v3.18l65.31,14.58c7.94.2,9.98-1.43,10.31-3.59L346.1,904.68Z" fill="#02435a"/><path d="M317.39,637.86c74.27,40.42,101.93,82.45,54.57,117.45L245.6,845.54c-9.87-7.43-10.53-7.91-19.38-18.56c24.96-29.86,71-74.64,107.14-107.05-1.46-51.53-103.95-56.33-52.93-91.73l36.96,9.66Z" fill="#02435a"/><path d="M372.55,866.97c0,0,2.31,10.68,6.29,13.27s-27.11,11.04-27.11,11.04s3.32-11.05-2.47-16.86c-5.78-5.81,23.29-7.45,23.29-7.45Z" fill="#edb6a4"/><path d="M247.99,628.2c19.7,17.24,74.6,37.15,86.57,75.02L375,870.41c-11.25,5.31-11.99,5.67-25.81,8.69-17.04-34.63-50-112.45-64.56-157.88-48.83-21.21-92.85-17.08-91.52-83.01l54.87-10Z" fill="#e7e9f5"/><path d="M315.05,645.3c-2.3,8.79-121.11,2.98-122.95-6.54-2.39-50.06,9.2-174.71,16.2-191.15c9.71-2.42,33.76-4.43,43.38-5.68l.11-.06c15.82-2.32,54.76,11.45,63.71,13.14-.86,18.2,4.17,159.73-.45,190.29Z" fill="#02435a"/><path d="M258.53,400.28c-14.75,24.61-7.17,33.4-18.39,42.78-2.99,4.55,2.92,7.75,19.64,11.65c14.49,2.1,23.1-.05,26.16-7.85-10.84-5.82-.14-22.63,2.91-31.51l-30.33-15.07Z" fill="#e0a495"/><path style="mix-blend-mode:soft-light" d="M258.53,400.28c-14.75,24.61-7.17,33.4-18.39,42.78-2.99,4.55,2.92,7.75,19.64,11.65c14.49,2.1,23.1-.05,26.16-7.85-10.84-5.82-.14-22.63,2.91-31.51l-30.33-15.07Z" fill="url(#ejotw0LqUfX69-fill)"/><path d="M237.47,416.69c10.43,8.88,36.24,19.33,44.38,16.62c14.44-3.12,19.53-57.38,5.1-72.34l-39.54,3.32-14.45,27.05c2.19,10.63-3.5,18.99,4.51,25.35Z" fill="#edb6a4"/><path style="mix-blend-mode:soft-light" d="M237.47,416.69c10.43,8.88,36.24,19.33,44.38,16.62c14.44-3.12,19.53-57.38,5.1-72.34l-39.54,3.32-14.45,27.05c2.19,10.63-3.5,18.99,4.51,25.35Z" fill="url(#ejotw0LqUfX71-fill)"/><path d="M259.7,384.11c37.58,13.82,35.51,10.11,43.25,5.94c7.18-7.95,19.82-27.65-11.07-28.78-8.94-5.61-23.37-17.84-40.5-11.51-21.49,13.85-23.54,25.17-20.21,41.36c2.43,22.45-10.97,26.75-2.92,34.42c27.23,25.93,21.97,8.79,20.52-16.68-3.3-.72-4.47-4.4-4.21-7.36-.21-3.89-1.46-6.54,2.51-8.06c1.38-.38,6.15,1.28,8.15,6.91c3.5-5.11,6.12-8.8,4.47-16.23Z" fill="#142837"/><path d="M351.18,562.53c-2.66-40.46-14.81-100.17-35.68-107.52l-1.72,43.13c.52,31.89,2.74,61.2,8.96,84.41l21.42,82.27l27.47-6.37c-6.57-22.49-19.75-85.15-20.46-95.92Z" fill="#02435a"/><path d="M252.04,686.63l-34.42-32.92c-2.01-1.92-.77-5.22,2.05-5.38c23.15-1.32,93.86-5.33,94.66-5.33.95,0,23.86,34.44,23.86,34.44l-86.15,9.18Z" fill="#b7b7b7"/><path d="M359.68,674.99L255.99,687.27c-5.46.65-8.43-3.49-6.64-9.24l18.3-58.59c1.8-5.75,7.68-10.94,13.14-11.58l103.69-12.28c5.46-.65,8.43,3.49,6.64,9.24l-18.3,58.59c-1.8,5.75-7.68,10.94-13.14,11.58Z" fill="#142837"/><path d="M208.3,447.61c-19.32,0-64.84,98.92-65,116.71-.24,26.69,52.61,62.27,81.74,91.66l17.89-10.96-62.44-80.99l49.03-77.9-21.22-38.52Z" fill="#02435a"/><polygon points="242.93,645.02 251.16,648.72 256.25,655.98 252.17,669.01 245.33,669.01 235.57,659.15 225.04,655.98 242.93,645.02" fill="#edb6a4"/><polygon style="mix-blend-mode:soft-light" points="242.93,645.02 251.16,648.72 256.25,655.98 252.17,669.01 245.33,669.01 235.57,659.15 225.04,655.98 242.93,645.02" fill="url(#ejotw0LqUfX78-fill)"/><path d="M380.25,879.09c17.82,17.78,12.88,14.06,27.02,22.29c6.46,3.62,26.9,22.49,4.63,18.6l-65.8-15.31c-2.01-5.86-2.42-16.77,5.38-21.81c10.81,1.03,16.76,4.55,28.77-3.77Z" fill="#142837"/></g><g><path d="M324.96,633.63c.36.13.67.33.94.6.22.27.42.56.6.87.13.36.2.71.2,1.07v13.66c0,.74-.33,1.47-.8,1.94-.54.54-1.21.8-1.94.8s-1.41-.27-1.94-.8c-.54-.47-.8-1.21-.8-1.94v-.07c-1.07.2-2.14.07-3.08-.4s-1.67-1.27-2.08-2.21c-.47-1-.54-2.08-.27-3.08.33-1,.94-1.87,1.81-2.48-.33-.54-.47-1.07-.54-1.67c0-.54.13-1.14.4-1.67.27-.47.67-.94,1.21-1.21.47-.27,1.07-.47,1.61-.47.09,0,.18.02.27.07h.27c.09,0,.16.02.2.07.09,0,.18.02.27.07v-.13c0,0-.07-.11-.07-.2v-.27c0-.36.07-.71.2-1.07.13-.31.33-.6.6-.87s.56-.47.87-.6c.36-.13.71-.2,1.07-.2s.69.07,1,.2Z" fill="#fff"/><path d="M330.92,633.43c.36,0,.71.07,1.07.2.31.13.6.33.87.6s.47.56.6.87c.13.36.2.71.2,1.07c0,.04,0,.09,0,.13s0,.11,0,.2c-.04.04-.07.09-.07.13v.13c0,0,.11-.02.2-.07.09,0,.18-.02.27-.07h.47c.6,0,1.21.13,1.67.4.54.33.94.74,1.21,1.27.27.47.4,1.07.33,1.67c0,.54-.2,1.14-.54,1.61.8.54,1.41,1.34,1.74,2.28.27.94.27,1.94,0,2.81-.33.94-.87,1.74-1.67,2.28-.8.6-1.74.87-2.75.87h-.67c-.09-.04-.16-.07-.2-.07v0c0,0,0,.07,0,.07v0c0,.74-.33,1.47-.8,1.94-.54.54-1.21.8-1.94.8s-1.41-.27-1.94-.8c-.54-.47-.8-1.21-.8-1.94v-13.66c0-.36.07-.71.2-1.07.13-.31.33-.6.6-.87s.56-.47.87-.6c.36-.13.71-.2,1.07-.2Z" fill="#fff"/></g></g></g></g></g></g></svg>
