<svg id="eVu032HQaXR1" xmlns="http://www.w3.org/2000/svg" xmlns:xlink="http://www.w3.org/1999/xlink" viewBox="0 0 1080 1080" shape-rendering="geometricPrecision" text-rendering="geometricPrecision">
<style><![CDATA[
#eVu032HQaXR21_to {animation: eVu032HQaXR21_to__to 9999ms linear 1 normal forwards}@keyframes eVu032HQaXR21_to__to { 0% {transform: translate(206.299526px,302.540964px)} 100% {transform: translate(242.099526px,346.212839px)}} #eVu032HQaXR41_to {animation: eVu032HQaXR41_to__to 9999ms linear 1 normal forwards}@keyframes eVu032HQaXR41_to__to { 0% {transform: translate(877.727276px,715.183281px)} 100% {transform: translate(736.191412px,715.183272px)}}
]]></style>
<defs><linearGradient id="eVu032HQaXR26-fill" x1="375.990243" y1="504.938875" x2="260.236827" y2="629.149291" spreadMethod="pad" gradientUnits="userSpaceOnUse" gradientTransform="translate(0 0)"><stop id="eVu032HQaXR26-fill-0" offset="0%" stop-color="#fff"/><stop id="eVu032HQaXR26-fill-1" offset="10%" stop-color="#f9f9f9"/><stop id="eVu032HQaXR26-fill-2" offset="22%" stop-color="#e9e9e9"/><stop id="eVu032HQaXR26-fill-3" offset="36%" stop-color="#cfcfcf"/><stop id="eVu032HQaXR26-fill-4" offset="51%" stop-color="#ababab"/><stop id="eVu032HQaXR26-fill-5" offset="67%" stop-color="#7c7c7c"/><stop id="eVu032HQaXR26-fill-6" offset="83%" stop-color="#434343"/><stop id="eVu032HQaXR26-fill-7" offset="100%" stop-color="#010101"/><stop id="eVu032HQaXR26-fill-8" offset="100%" stop-color="#000"/></linearGradient><linearGradient id="eVu032HQaXR55-fill" x1="512.61" y1="590.69" x2="510.38" y2="526.98" spreadMethod="pad" gradientUnits="userSpaceOnUse" gradientTransform="translate(0 0)"><stop id="eVu032HQaXR55-fill-0" offset="0%" stop-color="#fff"/><stop id="eVu032HQaXR55-fill-1" offset="10%" stop-color="#f9f9f9"/><stop id="eVu032HQaXR55-fill-2" offset="22%" stop-color="#e9e9e9"/><stop id="eVu032HQaXR55-fill-3" offset="36%" stop-color="#cfcfcf"/><stop id="eVu032HQaXR55-fill-4" offset="51%" stop-color="#ababab"/><stop id="eVu032HQaXR55-fill-5" offset="67%" stop-color="#7c7c7c"/><stop id="eVu032HQaXR55-fill-6" offset="83%" stop-color="#434343"/><stop id="eVu032HQaXR55-fill-7" offset="100%" stop-color="#010101"/><stop id="eVu032HQaXR55-fill-8" offset="100%" stop-color="#000"/></linearGradient><linearGradient id="eVu032HQaXR57-fill" x1="549.24" y1="505.55" x2="456.58" y2="536.29" spreadMethod="pad" gradientUnits="userSpaceOnUse" gradientTransform="translate(0 0)"><stop id="eVu032HQaXR57-fill-0" offset="0%" stop-color="#fff"/><stop id="eVu032HQaXR57-fill-1" offset="10%" stop-color="#f9f9f9"/><stop id="eVu032HQaXR57-fill-2" offset="22%" stop-color="#e9e9e9"/><stop id="eVu032HQaXR57-fill-3" offset="36%" stop-color="#cfcfcf"/><stop id="eVu032HQaXR57-fill-4" offset="51%" stop-color="#ababab"/><stop id="eVu032HQaXR57-fill-5" offset="67%" stop-color="#7c7c7c"/><stop id="eVu032HQaXR57-fill-6" offset="83%" stop-color="#434343"/><stop id="eVu032HQaXR57-fill-7" offset="100%" stop-color="#010101"/><stop id="eVu032HQaXR57-fill-8" offset="100%" stop-color="#000"/></linearGradient><linearGradient id="eVu032HQaXR64-fill" x1="515.65" y1="724.51" x2="532.01" y2="742.23" spreadMethod="pad" gradientUnits="userSpaceOnUse" gradientTransform="translate(0 0)"><stop id="eVu032HQaXR64-fill-0" offset="0%" stop-color="#fff"/><stop id="eVu032HQaXR64-fill-1" offset="100%" stop-color="#000"/></linearGradient></defs><g style="isolation:isolate" transform="translate(.010269 0)"><g><g><g><g><g><rect width="568.28" height="363.49" rx="18.21" ry="18.21" transform="translate(353.15 405.92)" fill="#142837"/><rect width="537.81" height="303.5" rx="6.83" ry="6.83" transform="translate(368.38 426.51)" fill="#e7e9f5"/><path d="M319.09,769.41h636.4v13.25c0,22.94-18.62,41.56-41.56,41.56h-553.28c-22.94,0-41.56-18.62-41.56-41.56v-13.25v0Z" fill="#3a444a"/><path d="M585.97,769.41h102.63v9.01c0,11.55-9.38,20.93-20.93,20.93h-60.77c-11.55,0-20.93-9.38-20.93-20.93v-9.01v0Z" fill="#b7b7b7"/><rect width="148.26" height="32.51" rx="12.28" ry="12.28" transform="translate(405.17 571.41)" fill="#b7b7b7"/><rect width="143.96" height="32.51" rx="12.1" ry="12.1" transform="translate(405.17 617.61)" fill="#b7b7b7"/><rect width="186.4" height="32.51" rx="13.77" ry="13.77" transform="translate(405.17 663.81)" fill="#b7b7b7"/><rect width="117.92" height="32.51" rx="10.95" ry="10.95" transform="translate(651.27 446.51)" fill="#b7b7b7"/><rect width="114.51" height="32.51" rx="10.79" ry="10.79" transform="translate(651.27 492.71)" fill="#b7b7b7"/><rect width="148.26" height="32.51" rx="12.28" ry="12.28" transform="translate(651.27 538.9)" fill="#b7b7b7"/><rect width="160.69" height="32.51" rx="12.78" ry="12.78" transform="translate(651.27 624.46)" fill="#b7b7b7"/><rect width="208.06" height="32.51" rx="13.77" ry="13.77" transform="translate(651.27 670.66)" fill="#b7b7b7"/><circle r="49.55" transform="translate(470.57 495.01)" fill="#b7b7b7"/></g><g id="eVu032HQaXR21_to" transform="translate(206.299526,302.540964)"><g transform="translate(-286.570023,-383.588974)"><path d="M446.11,281.66c-71.46-11.4-105.44,24.09-159.1,25.67-45.54,1.34-89.61-37.07-159.94-25.67c0-87.94,71.38-159.52,159.52-159.52s159.52,71.58,159.52,159.52Z" fill="#b7b7b7"/><path d="M446.11,281.66c-71.46-11.4-105.44,24.09-159.1,25.67-45.54,1.34-89.61-37.07-159.94-25.67c0-87.94,71.38-159.52,159.52-159.52s159.52,71.58,159.52,159.52Z" fill="#02435a"/><g><path d="M356.94,595.21l-29.75-29.75c-2.85-2.85-3.77-7.11-2.34-10.88l2.12-5.6c1.07-2.83.38-6.02-1.76-8.16l-21.53-21.53c-1.56-1.56-3.49-2.49-5.51-2.84l-9.65-2.01.48,5.02-43.49,43.49c-4.01,4.01-4.01,10.5,0,14.51l61.36,61.36-.35,4.12l8.67,1.87c.12.03.24.06.36.08l.26.06.02-.03c3.11.47,6.4-.46,8.79-2.86l32.33-32.33c4.01-4.01,4.01-10.5,0-14.51Z" fill="#142837"/><path style="mix-blend-mode:soft-light" d="M356.94,595.21l-29.75-29.75c-2.85-2.85-3.77-7.11-2.34-10.88l2.12-5.6c1.07-2.83.38-6.02-1.76-8.16l-21.53-21.53c-1.56-1.56-3.49-2.49-5.51-2.84l-9.65-2.01.48,5.02-43.49,43.49c-4.01,4.01-4.01,10.5,0,14.51l61.36,61.36-.35,4.12l8.67,1.87c.12.03.24.06.36.08l.26.06.02-.03c3.11.47,6.4-.46,8.79-2.86l32.33-32.33c4.01-4.01,4.01-10.5,0-14.51Z" fill="url(#eVu032HQaXR26-fill)"/><g><rect width="47.95" height="67.3" rx="4.66" ry="4.66" transform="matrix(.707107 0.707107-.707107 0.707107 358.69878 522.593562)" fill="#dff2f8"/><rect width="51.09" height="58.74" rx="4.49" ry="4.49" transform="matrix(.707107 0.707107-.707107 0.707107 348.026205 521.921008)" fill="#142837"/><rect width="12.44" height="5.56" rx="2.35" ry="2.35" transform="matrix(.707107 0.707107-.707107 0.707107 346.645986 528.961276)" fill="#cceaf1"/><rect width="40.22" height="5.56" rx="2.35" ry="2.35" transform="matrix(.707107 0.707107-.707107 0.707107 339.006752 536.594211)" fill="#cceaf1"/><rect width="32.37" height="5.56" rx="2.35" ry="2.35" transform="matrix(.707107 0.707107-.707107 0.707107 332.549862 543.051627)" fill="#cceaf1"/><rect width="40.22" height="5.56" rx="2.35" ry="2.35" transform="matrix(.707107 0.707107-.707107 0.707107 326.102184 549.50714)" fill="#cceaf1"/></g><g><path d="M347.06,607.64l-32.33,32.33c-4.01,4.01-10.5,4.01-14.51,0l-64.59-64.59c-4.01-4.01-4.01-10.5,0-14.51l43.66-43.66c4.01-4.01,10.5-4.01,14.51,0l21.53,21.53c2.14,2.14,2.83,5.33,1.76,8.16l-2.12,5.6c-1.43,3.77-.51,8.03,2.34,10.88l29.75,29.75c4.01,4.01,4.01,10.5,0,14.51Z" fill="#e7e9f5"/><circle r="3.1" transform="translate(288.58 528.16)" fill="#3a3868"/><circle r="3.1" transform="translate(294.24 533.83)" fill="#3a3868"/><circle r="3.1" transform="translate(299.91 539.49)" fill="#3a3868"/></g><path d="M347.06,593.14l-29.75-29.75c-2.85-2.85-3.77-7.11-2.34-10.88l2.12-5.6c1.07-2.83.38-6.02-1.76-8.16L293.8,517.22c-4.01-4.01-10.5-4.01-14.51,0l-43.66,43.66c-4.01,4.01-4.01,10.5,0,14.51l64.59,64.59c4.01,4.01,10.5,4.01,14.51,0l32.33-32.33c4.01-4.01,4.01-10.5,0-14.51Z" fill="#e7e9f5"/></g><path d="M447.55,279.54c-1.17-.79-2.75-.49-3.56.68L293.88,500.91c-.28-.19-.54-.4-.84-.56l69.41-209.81c.44-1.34-.28-2.79-1.63-3.23-1.28-.42-2.78.29-3.23,1.63L288.18,498.76c-.55-.07-1.03-.32-1.6-.32s-1.05.25-1.6.32L215.57,288.94c-.45-1.36-1.94-2.06-3.23-1.63-1.35.44-2.07,1.89-1.63,3.23l69.41,209.81c-.29.17-.56.37-.84.56L129.17,280.22c-.8-1.17-2.41-1.47-3.56-.68-1.17.8-1.47,2.39-.68,3.56L275.61,504.62c-1.37,2.09-2.36,4.45-2.36,7.13c0,7.35,5.96,13.32,13.32,13.32s13.32-5.96,13.32-13.32c0-2.69-.99-5.04-2.36-7.13L448.21,283.09c.79-1.17.49-2.76-.68-3.56Z" fill="#142837"/></g></g><g id="eVu032HQaXR41_to" transform="translate(877.727276,715.183281)"><g transform="translate(-507.993347,-719.74054)"><g opacity="0.1"><polyline points="586.22,913.28 586.29,913.21 588.09,914.85" fill="#010101"/><line x1="550.46" y1="957.86" x2="548.66" y2="956.29" fill="#010101"/><path d="M578.74,582.04c-5.46-1.42-16.53-2.69-25.28-3.67-.07,0-.07-.07-.07-.07-1.57-1.42-2.62-2.84-3.44-4.26c2.62-.97,6.66-4.11,12.94-10.25c6.36-6.36-4.26-9.87-2.39-28.5c2.69-13.39,1.05-22.74-16.01-34.19-10.02-3.81-18.85.6-25.66,5.01-2.47,1.65-4.71,3.22-6.58,4.49-23.04.9-15.63,15.26-9.95,22.52.37.45.75.9,1.12,1.35c2.39,1.27,3.59,2.54,5.91,2.99.07,15.34,4.11,31.04,10.77,32.69.07.45.22.82.22,1.27.82,4.19.3,7.93-3.37,10.02-10.32,2.77-19.9,5.98-23.49,6.73-5.01,1.87-9.43,7.63-13.17,15.78-1.87,4.04-3.52,8.68-5.09,13.69-3.07,9.87-5.46,21.25-7.18,32.47-.75,4.64-1.35,9.28-1.87,13.69-.45,4.56-.82,9.05-1.12,13.24-.15,2.84-1.35,10.1-3.14,19.3-.6,3.37-1.27,6.88-2.02,10.62l-21.32-2.62c-4.34-.52-6.73,2.92-5.31,7.63L438.7,730l9.13,30.45c.75,2.47,2.39,4.79,4.41,6.51-.9.82-1.8,1.65-2.62,2.47-19.75,18.93-25.51,37.7-13.24,54.83h76.38c1.94-5.69,3.74-11.07,5.24-16.01c29.7-13.39,57.08-14.59,67.92-38.82c3.22-7.11,4.94-16.23,4.86-28.28.45-.37.75-.75.82-1.12.15-2.99.22-6.36.22-10.02v-.6c19.6-17.73,38.75-35.98,38.6-50.87-.15-14.74-36.36-96.5-51.69-96.5ZM487.7,693.58c2.17-8.38,3.67-17.73,4.79-27.83-.15,10.4-.22,20.8-.22,30.6v14.59l-8.68-1.05l3.44-13.54.67-2.77Zm103.08-1.72c-.07-1.94-.22-3.89-.3-5.83v-.07c-.3-4.49-.6-9.05-.82-13.61l-.07-.07v-.07c-.3-4.79-.67-9.5-1.05-14.21l12.27,20.27-10.02,13.61Z" fill="#010101"/></g><path d="M523.82,888.3c0,0,6.12,6.62,6.03,10.44-.1,3.82,19.95-12.26,19.95-12.26s-8.97-3.16-10.21-9.69-15.77,11.51-15.77,11.51Z" fill="#edb6a4"/><path d="M525.52,938.26l37.57-42.99c-1.78-7.03-6.7-10.9-14.08-12.31-5.7,7.5-12.14,13.5-19.9,16.85-.27,9.66-3.96,21.2-9.16,33.58-1.4,4.21,1.06,5.35,5.58,4.87Z" fill="#142837"/><rect width="57.18" height="2.45" rx="0" ry="0" transform="matrix(.658033-.752989 0.752989 0.658033 525.53733 938.185414)" fill="#02435a"/><path d="M445.97,941.87v2.63l-51.95,12.05c-6.31.17-7.94-1.18-8.2-2.97l60.15-11.71Z" fill="#02435a"/><path d="M468.81,721.28c-59.08,33.41-81.08,68.16-43.41,97.1l100.52,74.59c7.85-6.14,8.38-6.54,15.42-15.34-19.85-24.68-56.48-61.71-85.22-88.5c1.16-42.6,82.69-46.57,42.1-75.84l-29.4,7.99Z" fill="#02435a"/><path d="M424.93,910.7c0,0-1.84,8.83-5,10.97-3.17,2.14,21.56,9.13,21.56,9.13s-2.64-9.14,1.96-13.94-18.53-6.16-18.53-6.16Z" fill="#edb6a4"/><path d="M524.02,713.3c-15.67,14.26-59.35,30.71-68.87,62.02L422.98,913.54c8.95,4.39,9.54,4.69,20.53,7.18c13.55-28.63,39.78-92.97,51.35-130.53c38.84-17.54,73.86-14.12,72.8-68.63l-43.65-8.27Z" fill="#e7e9f5"/><path d="M470.67,727.44c1.83,7.27,96.34,2.46,97.8-5.41c1.9-41.39-7.32-144.44-12.88-158.03-7.72-2-26.86-3.67-34.51-4.7l-.09-.05c-12.58-1.92-43.56,9.47-50.68,10.86.68,15.05-3.31,132.06.36,157.33Z" fill="#02435a"/><path d="M515.63,524.86c11.73,20.34,5.7,27.61,14.63,35.37c2.38,3.76-2.33,6.41-15.62,9.63-11.53,1.74-18.38-.04-20.81-6.49c8.62-4.82.11-18.71-2.32-26.05l24.13-12.46Z" fill="#e0a495"/><path style="mix-blend-mode:soft-light" d="M515.63,524.86c11.73,20.34,5.7,27.61,14.63,35.37c2.38,3.76-2.33,6.41-15.62,9.63-11.53,1.74-18.38-.04-20.81-6.49c8.62-4.82.11-18.71-2.32-26.05l24.13-12.46Z" fill="url(#eVu032HQaXR55-fill)"/><path d="M532.38,538.44c-8.3,7.34-28.83,15.98-35.3,13.74-11.49-2.58-15.53-47.44-4.06-59.81l31.45,2.74l11.5,22.36c-1.74,8.79,2.78,15.7-3.59,20.95Z" fill="#edb6a4"/><path style="mix-blend-mode:soft-light" d="M532.38,538.44c-8.3,7.34-28.83,15.98-35.3,13.74-11.49-2.58-15.53-47.44-4.06-59.81l31.45,2.74l11.5,22.36c-1.74,8.79,2.78,15.7-3.59,20.95Z" fill="url(#eVu032HQaXR57-fill)"/><path d="M514.71,511.49c-29.89,11.42-28.25,8.36-34.4,4.91-5.71-6.57-15.76-22.86,8.81-23.8c7.11-4.64,18.59-14.75,32.21-9.51c17.09,11.45,18.72,20.81,16.08,34.2-1.94,18.56,8.72,22.12,2.32,28.45-21.66,21.44-17.48,7.27-16.32-13.79c2.63-.6,3.55-3.63,3.35-6.09.16-3.22,1.16-5.4-2-6.67-1.09-.31-4.89,1.05-6.48,5.71-2.78-4.22-4.87-7.27-3.56-13.42Z" fill="#142837"/><path d="M441.93,659.01c2.11-33.45,11.78-82.81,28.38-88.89l1.37,35.66c-.42,26.36-2.18,50.6-7.13,69.79l-17.04,68.02-21.85-5.27c5.23-18.59,15.71-70.4,16.27-79.3Z" fill="#02435a"/><path d="M520.79,761.61l27.38-27.22c1.6-1.59.61-4.31-1.63-4.44-18.41-1.09-74.67-4.41-75.3-4.41-.76,0-18.98,28.48-18.98,28.48l68.53,7.59Z" fill="#b7b7b7"/><path d="M435.17,751.98l82.48,10.15c4.34.53,6.71-2.89,5.28-7.64l-14.56-48.44c-1.43-4.75-6.11-9.04-10.45-9.58l-82.48-10.15c-4.34-.53-6.71,2.89-5.28,7.64l14.56,48.44c1.43,4.75,6.11,9.04,10.45,9.58Z" fill="#142837"/><path d="M555.59,563.99c15.37,0,51.58,81.78,51.71,96.49.19,22.06-41.85,51.48-65.02,75.78l-14.23-9.06l49.67-66.95-39-64.4L555.6,564Z" fill="#02435a"/><polygon points="528.05,727.2 521.5,730.26 517.45,736.26 520.69,747.04 526.13,747.04 533.9,738.88 542.28,736.26 528.05,727.2" fill="#edb6a4"/><polygon style="mix-blend-mode:soft-light" points="528.05,727.2 521.5,730.26 517.45,736.26 520.69,747.04 526.13,747.04 533.9,738.88 542.28,736.26 528.05,727.2" fill="url(#eVu032HQaXR64-fill)"/><path d="M418.8,920.72c-14.18,14.7-10.25,11.62-21.49,18.43-5.14,3-21.4,18.59-3.68,15.38l52.35-12.66c1.6-4.84,1.93-13.86-4.28-18.03-8.6.85-13.33,3.76-22.89-3.12Z" fill="#142837"/><g><path d="M536.31,598.22c.36.13.67.33.94.6.22.27.42.56.6.87.13.36.2.71.2,1.07v13.66c0,.74-.33,1.47-.8,1.94-.54.54-1.21.8-1.94.8s-1.41-.27-1.94-.8c-.54-.47-.8-1.21-.8-1.94v-.07c-1.07.2-2.14.07-3.08-.4s-1.67-1.27-2.08-2.21c-.47-1-.54-2.08-.27-3.08.33-1,.94-1.87,1.81-2.48-.33-.54-.47-1.07-.54-1.67c0-.54.13-1.14.4-1.67.27-.47.67-.94,1.21-1.21.47-.27,1.07-.47,1.61-.47.09,0,.18.02.27.07h.27c.09,0,.16.02.2.07.09,0,.18.02.27.07v-.13c0,0-.07-.11-.07-.2v-.27c0-.36.07-.71.2-1.07.13-.31.33-.6.6-.87s.56-.47.87-.6c.36-.13.71-.2,1.07-.2s.69.07,1,.2Z" fill="#fff"/><path d="M542.27,598.02c.36,0,.71.07,1.07.2.31.13.6.33.87.6s.47.56.6.87c.13.36.2.71.2,1.07c0,.04,0,.09,0,.13s0,.11,0,.2c-.04.04-.07.09-.07.13v.13c0,0,.11-.02.2-.07.09,0,.18-.02.27-.07h.47c.6,0,1.21.13,1.67.4.54.33.94.74,1.21,1.27.27.47.4,1.07.33,1.67c0,.54-.2,1.14-.54,1.61.8.54,1.41,1.34,1.74,2.28.27.94.27,1.94,0,2.81-.33.94-.87,1.74-1.67,2.28-.8.6-1.74.87-2.75.87h-.67c-.09-.04-.16-.07-.2-.07v0c0,0,0,.07,0,.07v0c0,.74-.33,1.47-.8,1.94-.54.54-1.21.8-1.94.8s-1.41-.27-1.94-.8c-.54-.47-.8-1.21-.8-1.94v-13.66c0-.36.07-.71.2-1.07.13-.31.33-.6.6-.87s.56-.47.87-.6c.36-.13.71-.2,1.07-.2Z" fill="#fff"/></g></g></g></g></g></g></g></g></svg>
