<?xml version="1.0" encoding="UTF-8"?>
<svg id="Layer_1" data-name="Layer 1" xmlns="http://www.w3.org/2000/svg" viewBox="0 0 300 300">
  <defs>
    <style>
      .cls-1, .cls-2, .cls-3, .cls-4 {
        fill-rule: evenodd;
        stroke-width: 2px;
      }

      .cls-1, .cls-2, .cls-3, .cls-4, .cls-5 {
        stroke: #014359;
        stroke-miterlimit: 10;
      }

      .cls-1, .cls-4 {
        fill: #ebebe7;
      }

      .cls-2, .cls-5 {
        fill: #fff;
      }

      .cls-3 {
        fill: #b8e4f2;
      }

      .cls-3, .cls-4, .cls-5 {
        stroke-linecap: round;
      }

      .cls-5 {
        stroke-width: .75px;
      }
    </style>
  </defs>
  <g>
    <path class="cls-3" d="M149.74,74.83c0-10.04-2.03-12.06-12.07-12.06H54.55c-10.04,0-12.07,2.03-12.07,12.06v48.54c0,10.04,2.03,12.06,12.07,12.06h54.32l28.84,20.1-.03-20.1c10.04,0,12.06-2.03,12.06-12.06v-48.54Z"/>
    <path class="cls-1" d="M183.72,232.77c.19-1.87,.88-9.91-.36-10.91-2.61-2.09-8.56-.59-11.68-1.77-4.02-1.53-6.79-8.46-8.21-12.24-2.57-6.84-4.26-10.16-4.42-17.46-7.36-1.45-12.83-6.4-8.68-14.21,3.55-6.68,8.43-10.16,10.49-17.82,5.09-19.02,3.25-30.77,23.61-39.71,17.92-7.87,36.34-7.34,53.08,3.51,33.02,21.4,17.87,63.31,5.68,75.58-9.58,9.65-6.33,39.4-6.33,39.4,0,0-46.31,.24-53.77-.01,.07-1.17,.44-2.78,.59-4.35Z"/>
    <path class="cls-4" d="M172.01,164.05s3.82,6.86,11.27,3.85"/>
    <path class="cls-2" d="M242.13,153.53c0-.82-.67-1.49-1.49-1.49,0,0-3.76-.22-3.82-.41-.63-2.05-1.53-5.38-2.65-6.98-.05-.07,2.28-2.57,2.28-2.57,.58-.58,.58-1.53,0-2.11l-1.9-1.9c-.58-.58-1.53-.58-2.11,0,0,0-2.58,2.54-2.63,2.5-1.97-1.29-4.21-2.21-6.62-2.64-.11-.02-.1-3.9-.1-3.9,0-.82-.67-1.49-1.49-1.49h-2.69c-.82,0-1.49,.67-1.49,1.49,0,0-.04,3.8-.16,3.81-2.66,.41-5.13,1.4-7.28,2.84-.08,.05-2.74-2.61-2.74-2.61-.58-.58-1.53-.58-2.11,0l-1.9,1.9c-.58,.58-.58,1.53,0,2.11,0,0,2.49,2.63,2.42,2.73-1.1,1.65-1.98,5.03-2.6,7.01-.04,.12-3.76,.23-3.76,.23-.82,0-1.49,.67-1.49,1.49v3.88c0,.82,.67,1.49,1.49,1.49,0,0,3.72,.1,3.76,.22,.6,1.95,1.47,5.36,2.54,7.06,.08,.13-2.36,2.82-2.36,2.82-.58,.58-.58,1.53,0,2.11l1.9,1.9c.58,.58,1.53,.58,2.11,0,0,0,2.7-2.64,2.8-2.57,2.11,1.41,4.54,2.38,7.16,2.79,.14,.02,.22,3.82,.22,3.82,0,.82,.66,1.49,1.49,1.49h2.69c.82,0,1.49-.67,1.49-1.49,0,0,.03-3.88,.15-3.9,2.34-.43,4.52-1.32,6.45-2.57,.09-.06,2.74,2.43,2.74,2.43,.58,.58,1.53,.58,2.11,0l1.9-1.9c.58-.58,.58-1.53,0-2.11,0,0-2.27-2.58-2.19-2.7,1.1-1.7,1.99-5.12,2.6-7.11,.04-.14,3.77-.27,3.77-.27,.82,0,1.49-.67,1.49-1.49v-3.88Zm-22.16,7.53c-3.05,0-5.52-2.47-5.52-5.52s2.47-5.52,5.52-5.52,5.52,2.47,5.52,5.52-2.47,5.52-5.52,5.52Z"/>
    <g>
      <g>
        <path class="cls-5" d="M66.93,90.08c-1.19,0-2.16,.97-2.16,2.16,0,.17,.03,.34,.06,.5-.25-.08-.51-.14-.78-.14-1.39,0-2.52,1.13-2.52,2.52,0,.52,.16,1,.42,1.39-.91,.65-1.5,1.71-1.5,2.92,0,1.98,1.61,3.59,3.59,3.59,.25,0,.49-.03,.73-.07,0,.02,0,.05,0,.07,0,1.19,.97,2.16,2.16,2.16s2.16-.97,2.16-2.16v-10.78c0-1.19-.97-2.16-2.16-2.16"/>
        <path class="cls-5" d="M72.43,90.08c1.19,0,2.16,.97,2.16,2.16,0,.17-.03,.34-.06,.5,.25-.08,.51-.14,.78-.14,1.39,0,2.52,1.13,2.52,2.52,0,.52-.16,1-.42,1.39,.91,.65,1.5,1.71,1.5,2.92,0,1.98-1.61,3.59-3.59,3.59-.25,0-.49-.03-.73-.07,0,.02,0,.05,0,.07,0,1.19-.97,2.16-2.16,2.16s-2.16-.97-2.16-2.16v-10.78c0-1.19,.97-2.16,2.16-2.16"/>
      </g>
      <g>
        <path class="cls-5" d="M93.36,90.08c-1.19,0-2.16,.97-2.16,2.16,0,.17,.03,.34,.06,.5-.25-.08-.51-.14-.78-.14-1.39,0-2.52,1.13-2.52,2.52,0,.52,.16,1,.42,1.39-.91,.65-1.5,1.71-1.5,2.92,0,1.98,1.61,3.59,3.59,3.59,.25,0,.49-.03,.73-.07,0,.02,0,.05,0,.07,0,1.19,.97,2.16,2.16,2.16s2.16-.97,2.16-2.16v-10.78c0-1.19-.97-2.16-2.16-2.16"/>
        <path class="cls-5" d="M98.86,90.08c1.19,0,2.16,.97,2.16,2.16,0,.17-.03,.34-.06,.5,.25-.08,.51-.14,.78-.14,1.39,0,2.52,1.13,2.52,2.52,0,.52-.16,1-.42,1.39,.91,.65,1.5,1.71,1.5,2.92,0,1.98-1.61,3.59-3.59,3.59-.25,0-.49-.03-.73-.07,0,.02,0,.05,0,.07,0,1.19-.97,2.16-2.16,2.16s-2.16-.97-2.16-2.16v-10.78c0-1.19,.97-2.16,2.16-2.16"/>
      </g>
      <g>
        <path class="cls-5" d="M119.79,90.08c-1.19,0-2.16,.97-2.16,2.16,0,.17,.03,.34,.06,.5-.25-.08-.51-.14-.78-.14-1.39,0-2.52,1.13-2.52,2.52,0,.52,.16,1,.42,1.39-.91,.65-1.5,1.71-1.5,2.92,0,1.98,1.61,3.59,3.59,3.59,.25,0,.49-.03,.73-.07,0,.02,0,.05,0,.07,0,1.19,.97,2.16,2.16,2.16s2.16-.97,2.16-2.16v-10.78c0-1.19-.97-2.16-2.16-2.16"/>
        <path class="cls-5" d="M125.29,90.08c1.19,0,2.16,.97,2.16,2.16,0,.17-.03,.34-.06,.5,.25-.08,.51-.14,.78-.14,1.39,0,2.52,1.13,2.52,2.52,0,.52-.16,1-.42,1.39,.91,.65,1.5,1.71,1.5,2.92,0,1.98-1.61,3.59-3.59,3.59-.25,0-.49-.03-.73-.07,0,.02,0,.05,0,.07,0,1.19-.97,2.16-2.16,2.16s-2.16-.97-2.16-2.16v-10.78c0-1.19,.97-2.16,2.16-2.16"/>
      </g>
    </g>
  </g>
  <g>
    <path class="cls-1" d="M183.72,232.77c.19-1.87,.88-9.91-.36-10.91-2.61-2.09-8.56-.59-11.68-1.77-4.02-1.53-6.79-8.46-8.21-12.24-2.57-6.84-4.26-10.16-4.42-17.46-7.36-1.45-12.83-6.4-8.68-14.21,3.55-6.68,8.43-10.16,10.49-17.82,5.09-19.02,3.25-30.77,23.61-39.71,17.92-7.87,36.34-7.34,53.08,3.51,33.02,21.4,17.87,63.31,5.68,75.58-9.58,9.65-6.33,39.4-6.33,39.4,0,0-46.31,.24-53.77-.01,.07-1.17,.44-2.78,.59-4.35Z"/>
    <path class="cls-4" d="M172.01,164.05s3.82,6.86,11.27,3.85"/>
  </g>
</svg>