<svg id="eK4zNB3JYqV1" xmlns="http://www.w3.org/2000/svg" xmlns:xlink="http://www.w3.org/1999/xlink" viewBox="0 0 300 300" shape-rendering="geometricPrecision" text-rendering="geometricPrecision">
<style><![CDATA[
#eK4zNB3JYqV2_tr {animation: eK4zNB3JYqV2_tr__tr 9999ms infinite}@keyframes eK4zNB3JYqV2_tr__tr { 0% {transform: translate(147.92688px,148.846353px) rotate(-75.850015deg)} 20% {transform: translate(147.92688px,148.846353px) rotate(-75.850015deg)} 74.333333% {transform: translate(147.92688px,148.846353px) rotate(1454.149985deg)} 100% {transform: translate(147.92688px,148.846353px) rotate(1454.149985deg)}} #eK4zNB3JYqV39_ts {animation: eK4zNB3JYqV39_ts__ts 9999ms infinite}@keyframes eK4zNB3JYqV39_ts__ts { 0% {transform: translate(147.93px,148.844978px) scale(0.911907,0.911907)} 100% {transform: translate(147.93px,148.844978px) scale(1.254648,1.254648)}}
]]></style>
<g id="eK4zNB3JYqV2_tr" transform="translate(147.92688,148.846353) rotate(-75.850015)"><circle r="72.28" transform="translate(0,0)" fill="none" stroke="#024359" stroke-width="3" stroke-linecap="round" stroke-miterlimit="10" stroke-dasharray="0,0,0,5.98"/></g><g><g><path d="M56.95,124.09h45.81c2.87,0,5.2,2.33,5.2,5.2v29.3c0,2.87-2.33,5.2-5.2,5.2h-45.81c-2.87,0-5.2-2.33-5.2-5.2v-29.3c0-2.87,2.33-5.2,5.2-5.2Z" fill="#ebebe7" stroke="#024359" stroke-width="2" stroke-miterlimit="10"/><path d="M107.96,158.6c0,3.28-1.93,5.2-5.2,5.2h-45.81c-3.28,0-5.2-1.93-5.2-5.2v-3.49h56.21v3.49Z" fill="#014359" fill-rule="evenodd" stroke="#014359" stroke-width="2" stroke-linecap="round" stroke-miterlimit="10"/><polygon points="86.34,173.61 83.65,163.89 76.05,163.89 73.37,173.61 86.34,173.61" fill="#ebebe7" fill-rule="evenodd" stroke="#014359" stroke-width="2" stroke-linecap="round" stroke-miterlimit="10"/><line x1="68.63" y1="173.61" x2="91.07" y2="173.61" fill="#96d8e4" stroke="#024359" stroke-width="2" stroke-linecap="round" stroke-miterlimit="10"/></g><g><path d="M77.25,146.14c.03-.25.12-1.32-.05-1.46-.35-.28-1.14-.08-1.56-.24-.54-.2-.91-1.13-1.1-1.63-.34-.91-.57-1.36-.59-2.33-.98-.19-1.71-.85-1.16-1.9.47-.89,1.13-1.36,1.4-2.38.68-2.54.43-4.11,3.15-5.3c2.39-1.05,4.85-.98,7.08.47c4.41,2.86,2.38,8.45.76,10.09-1.28,1.29-.85,5.26-.85,5.26s-6.18.03-7.18,0c0-.16.06-.37.08-.58Z" fill="#ebebe7" fill-rule="evenodd" stroke="#014359" stroke-miterlimit="10"/><path d="M75.68,136.97c0,0,.51.92,1.5.51" fill="#ebebe7" fill-rule="evenodd" stroke="#014359" stroke-linecap="round" stroke-miterlimit="10"/></g></g><g><g><path d="M125.03,187.72h45.81c2.87,0,5.2,2.33,5.2,5.2v29.3c0,2.87-2.33,5.2-5.2,5.2h-45.81c-2.87,0-5.2-2.33-5.2-5.2v-29.3c0-2.87,2.33-5.2,5.2-5.2Z" fill="#ebebe7" stroke="#024359" stroke-width="2" stroke-miterlimit="10"/><path d="M176.04,222.23c0,3.28-1.93,5.2-5.2,5.2h-45.81c-3.28,0-5.2-1.93-5.2-5.2v-3.49h56.21v3.49Z" fill="#014359" fill-rule="evenodd" stroke="#014359" stroke-width="2" stroke-linecap="round" stroke-miterlimit="10"/><polygon points="154.41,237.24 151.73,227.52 144.13,227.52 141.44,237.24 154.41,237.24" fill="#ebebe7" fill-rule="evenodd" stroke="#014359" stroke-width="2" stroke-linecap="round" stroke-miterlimit="10"/><line x1="136.71" y1="237.24" x2="159.15" y2="237.24" fill="#96d8e4" stroke="#024359" stroke-width="2" stroke-linecap="round" stroke-miterlimit="10"/></g><g><path d="M145.33,209.77c.03-.25.12-1.32-.05-1.46-.35-.28-1.14-.08-1.56-.24-.54-.2-.91-1.13-1.1-1.63-.34-.91-.57-1.36-.59-2.33-.98-.19-1.71-.85-1.16-1.9.47-.89,1.13-1.36,1.4-2.38.68-2.54.43-4.11,3.15-5.3c2.39-1.05,4.85-.98,7.08.47c4.41,2.86,2.38,8.45.76,10.09-1.28,1.29-.85,5.26-.85,5.26s-6.18.03-7.18,0c0-.16.06-.37.08-.58Z" fill="#ebebe7" fill-rule="evenodd" stroke="#014359" stroke-miterlimit="10"/><path d="M143.76,200.6c0,0,.51.92,1.5.51" fill="#ebebe7" fill-rule="evenodd" stroke="#014359" stroke-linecap="round" stroke-miterlimit="10"/></g></g><g><g><path d="M197.25,124.09h45.81c2.87,0,5.2,2.33,5.2,5.2v29.3c0,2.87-2.33,5.2-5.2,5.2h-45.81c-2.87,0-5.2-2.33-5.2-5.2v-29.3c0-2.87,2.33-5.2,5.2-5.2Z" fill="#ebebe7" stroke="#024359" stroke-width="2" stroke-miterlimit="10"/><path d="M248.26,158.6c0,3.28-1.93,5.2-5.2,5.2h-45.81c-3.28,0-5.2-1.93-5.2-5.2v-3.49h56.21v3.49Z" fill="#014359" fill-rule="evenodd" stroke="#014359" stroke-width="2" stroke-linecap="round" stroke-miterlimit="10"/><polygon points="226.63,173.61 223.95,163.89 216.35,163.89 213.66,173.61 226.63,173.61" fill="#ebebe7" fill-rule="evenodd" stroke="#014359" stroke-width="2" stroke-linecap="round" stroke-miterlimit="10"/><line x1="208.93" y1="173.61" x2="231.37" y2="173.61" fill="#96d8e4" stroke="#024359" stroke-width="2" stroke-linecap="round" stroke-miterlimit="10"/></g><g><path d="M217.55,146.14c.03-.25.12-1.32-.05-1.46-.35-.28-1.14-.08-1.56-.24-.54-.2-.91-1.13-1.1-1.63-.34-.91-.57-1.36-.59-2.33-.98-.19-1.71-.85-1.16-1.9.47-.89,1.13-1.36,1.4-2.38.68-2.54.43-4.11,3.15-5.3c2.39-1.05,4.85-.98,7.08.47c4.41,2.86,2.38,8.45.76,10.09-1.28,1.29-.85,5.26-.85,5.26s-6.18.03-7.18,0c0-.16.06-.37.08-.58Z" fill="#ebebe7" fill-rule="evenodd" stroke="#014359" stroke-miterlimit="10"/><path d="M215.98,136.97c0,0,.51.92,1.5.51" fill="#ebebe7" fill-rule="evenodd" stroke="#014359" stroke-linecap="round" stroke-miterlimit="10"/></g></g><g><g><path d="M125.03,62.76h45.81c2.87,0,5.2,2.33,5.2,5.2v29.3c0,2.87-2.33,5.2-5.2,5.2h-45.81c-2.87,0-5.2-2.33-5.2-5.2v-29.3c0-2.87,2.33-5.2,5.2-5.2Z" fill="#ebebe7" stroke="#024359" stroke-width="2" stroke-miterlimit="10"/><path d="M176.04,97.27c0,3.28-1.93,5.2-5.2,5.2h-45.81c-3.28,0-5.2-1.93-5.2-5.2v-3.49h56.21v3.49Z" fill="#014359" fill-rule="evenodd" stroke="#014359" stroke-width="2" stroke-linecap="round" stroke-miterlimit="10"/><polygon points="154.41,112.28 151.73,102.57 144.13,102.57 141.44,112.28 154.41,112.28" fill="#ebebe7" fill-rule="evenodd" stroke="#014359" stroke-width="2" stroke-linecap="round" stroke-miterlimit="10"/><line x1="136.71" y1="112.28" x2="159.15" y2="112.28" fill="#96d8e4" stroke="#024359" stroke-width="2" stroke-linecap="round" stroke-miterlimit="10"/></g><g><path d="M145.33,84.82c.03-.25.12-1.32-.05-1.46-.35-.28-1.14-.08-1.56-.24-.54-.2-.91-1.13-1.1-1.63-.34-.91-.57-1.36-.59-2.33-.98-.19-1.71-.85-1.16-1.9.47-.89,1.13-1.36,1.4-2.38.68-2.54.43-4.11,3.15-5.3c2.39-1.05,4.85-.98,7.08.47c4.41,2.86,2.38,8.45.76,10.09-1.28,1.29-.85,5.26-.85,5.26s-6.18.03-7.18,0c0-.16.06-.37.08-.58Z" fill="#ebebe7" fill-rule="evenodd" stroke="#014359" stroke-miterlimit="10"/><path d="M143.76,75.65c0,0,.51.92,1.5.51" fill="#ebebe7" fill-rule="evenodd" stroke="#014359" stroke-linecap="round" stroke-miterlimit="10"/></g></g><g id="eK4zNB3JYqV39_ts" transform="translate(147.93,148.844978) scale(0.911907,0.911907)"><g transform="translate(-147.93,-148.844978)"><path d="M142.15,132.98c-2.5,0-4.53,2.03-4.53,4.53c0,.36.05.71.13,1.04-.52-.17-1.07-.29-1.64-.29-2.92,0-5.29,2.37-5.29,5.29c0,1.09.33,2.09.89,2.93-1.91,1.37-3.16,3.61-3.16,6.14c0,4.17,3.38,7.56,7.56,7.56.52,0,1.03-.05,1.53-.16c0,.05-.02.1-.02.16c0,2.5,2.03,4.53,4.53,4.53s4.53-2.03,4.53-4.53v-22.67c0-2.5-2.03-4.53-4.53-4.53" fill="#014359" stroke="#014359" stroke-width="2" stroke-linecap="round" stroke-miterlimit="10"/><path d="M153.71,132.98c2.5,0,4.53,2.03,4.53,4.53c0,.36-.05.71-.13,1.04.52-.17,1.07-.29,1.64-.29c2.92,0,5.29,2.37,5.29,5.29c0,1.09-.33,2.09-.89,2.93c1.91,1.37,3.16,3.61,3.16,6.14c0,4.17-3.38,7.56-7.56,7.56-.52,0-1.03-.05-1.53-.16c0,.05.02.1.02.16c0,2.5-2.03,4.53-4.53,4.53s-4.53-2.03-4.53-4.53v-22.67c0-2.5,2.03-4.53,4.53-4.53" fill="#014359" stroke="#014359" stroke-width="2" stroke-linecap="round" stroke-miterlimit="10"/></g></g></svg>
