<svg id="ezE0J8RLaOd1" xmlns="http://www.w3.org/2000/svg" xmlns:xlink="http://www.w3.org/1999/xlink" viewBox="0 0 300 300" shape-rendering="geometricPrecision" text-rendering="geometricPrecision">
<style><![CDATA[
#ezE0J8RLaOd7_ts {animation: ezE0J8RLaOd7_ts__ts 9999ms infinite}@keyframes ezE0J8RLaOd7_ts__ts { 0% {transform: translate(96.110004px,97.630005px) scale(0.742896,0.742896)} 100% {transform: translate(96.110004px,97.630005px) scale(0.983931,0.983931)}} #ezE0J8RLaOd19_tr {animation: ezE0J8RLaOd19_tr__tr 9999ms infinite}@keyframes ezE0J8RLaOd19_tr__tr { 0% {transform: translate(177.644997px,166.356804px) rotate(20.224786deg)} 46.666667% {transform: translate(177.644997px,166.356804px) rotate(20.224786deg)} 100% {transform: translate(177.644997px,166.356804px) rotate(0deg)}}
]]></style>
<g><path d="M149.74,74.83c0-10.04-2.03-12.06-12.07-12.06h-83.12c-10.04,0-12.07,2.03-12.07,12.06v48.54c0,10.04,2.03,12.06,12.07,12.06h54.32l28.84,20.1-.03-20.1c10.04,0,12.06-2.03,12.06-12.06v-48.54Z" fill="#014359" fill-rule="evenodd" stroke="#014359" stroke-width="2" stroke-linecap="round" stroke-miterlimit="10"/><path d="M183.72,232.77c.19-1.87.88-9.91-.36-10.91-2.61-2.09-8.56-.59-11.68-1.77-4.02-1.53-6.79-8.46-8.21-12.24-2.57-6.84-4.26-10.16-4.42-17.46-7.36-1.45-12.83-6.4-8.68-14.21c3.55-6.68,8.43-10.16,10.49-17.82c5.09-19.02,3.25-30.77,23.61-39.71c17.92-7.87,36.34-7.34,53.08,3.51c33.02,21.4,17.87,63.31,5.68,75.58-9.58,9.65-6.33,39.4-6.33,39.4s-46.31.24-53.77-.01c.07-1.17.44-2.78.59-4.35Z" fill="#ebebe7" fill-rule="evenodd" stroke="#014359" stroke-width="2" stroke-miterlimit="10"/><path d="M172.01,164.05c0,0,3.82,6.86,11.27,3.85" fill="#ebebe7" fill-rule="evenodd" stroke="#014359" stroke-width="2" stroke-linecap="round" stroke-miterlimit="10"/><path d="M242.13,153.53c0-.82-.67-1.49-1.49-1.49c0,0-3.76-.22-3.82-.41-.63-2.05-1.53-5.38-2.65-6.98-.05-.07,2.28-2.57,2.28-2.57.58-.58.58-1.53,0-2.11l-1.9-1.9c-.58-.58-1.53-.58-2.11,0c0,0-2.58,2.54-2.63,2.5-1.97-1.29-4.21-2.21-6.62-2.64-.11-.02-.1-3.9-.1-3.9c0-.82-.67-1.49-1.49-1.49h-2.69c-.82,0-1.49.67-1.49,1.49c0,0-.04,3.8-.16,3.81-2.66.41-5.13,1.4-7.28,2.84-.08.05-2.74-2.61-2.74-2.61-.58-.58-1.53-.58-2.11,0l-1.9,1.9c-.58.58-.58,1.53,0,2.11c0,0,2.49,2.63,2.42,2.73-1.1,1.65-1.98,5.03-2.6,7.01-.04.12-3.76.23-3.76.23-.82,0-1.49.67-1.49,1.49v3.88c0,.82.67,1.49,1.49,1.49c0,0,3.72.1,3.76.22.6,1.95,1.47,5.36,2.54,7.06.08.13-2.36,2.82-2.36,2.82-.58.58-.58,1.53,0,2.11l1.9,1.9c.58.58,1.53.58,2.11,0c0,0,2.7-2.64,2.8-2.57c2.11,1.41,4.54,2.38,7.16,2.79.14.02.22,3.82.22,3.82c0,.82.66,1.49,1.49,1.49h2.69c.82,0,1.49-.67,1.49-1.49c0,0,.03-3.88.15-3.9c2.34-.43,4.52-1.32,6.45-2.57.09-.06,2.74,2.43,2.74,2.43.58.58,1.53.58,2.11,0l1.9-1.9c.58-.58.58-1.53,0-2.11c0,0-2.27-2.58-2.19-2.7c1.1-1.7,1.99-5.12,2.6-7.11.04-.14,3.77-.27,3.77-.27.82,0,1.49-.67,1.49-1.49v-3.88Zm-22.16,7.53c-3.05,0-5.52-2.47-5.52-5.52s2.47-5.52,5.52-5.52s5.52,2.47,5.52,5.52-2.47,5.52-5.52,5.52Z" fill="#fff" fill-rule="evenodd" stroke="#014359" stroke-width="2" stroke-miterlimit="10"/><g id="ezE0J8RLaOd7_ts" transform="translate(96.110004,97.630005) scale(0.742896,0.742896)"><g transform="translate(-96.110004,-97.630005)"><g><path d="M66.93,90.08c-1.19,0-2.16.97-2.16,2.16c0,.17.03.34.06.5-.25-.08-.51-.14-.78-.14-1.39,0-2.52,1.13-2.52,2.52c0,.52.16,1,.42,1.39-.91.65-1.5,1.71-1.5,2.92c0,1.98,1.61,3.59,3.59,3.59.25,0,.49-.03.73-.07c0,.02,0,.05,0,.07c0,1.19.97,2.16,2.16,2.16s2.16-.97,2.16-2.16v-10.78c0-1.19-.97-2.16-2.16-2.16" fill="#fff" stroke="#014359" stroke-width="0.75" stroke-linecap="round" stroke-miterlimit="10"/><path d="M72.43,90.08c1.19,0,2.16.97,2.16,2.16c0,.17-.03.34-.06.5.25-.08.51-.14.78-.14c1.39,0,2.52,1.13,2.52,2.52c0,.52-.16,1-.42,1.39.91.65,1.5,1.71,1.5,2.92c0,1.98-1.61,3.59-3.59,3.59-.25,0-.49-.03-.73-.07c0,.02,0,.05,0,.07c0,1.19-.97,2.16-2.16,2.16s-2.16-.97-2.16-2.16v-10.78c0-1.19.97-2.16,2.16-2.16" fill="#fff" stroke="#014359" stroke-width="0.75" stroke-linecap="round" stroke-miterlimit="10"/></g><g><path d="M93.36,90.08c-1.19,0-2.16.97-2.16,2.16c0,.17.03.34.06.5-.25-.08-.51-.14-.78-.14-1.39,0-2.52,1.13-2.52,2.52c0,.52.16,1,.42,1.39-.91.65-1.5,1.71-1.5,2.92c0,1.98,1.61,3.59,3.59,3.59.25,0,.49-.03.73-.07c0,.02,0,.05,0,.07c0,1.19.97,2.16,2.16,2.16s2.16-.97,2.16-2.16v-10.78c0-1.19-.97-2.16-2.16-2.16" fill="#fff" stroke="#014359" stroke-width="0.75" stroke-linecap="round" stroke-miterlimit="10"/><path d="M98.86,90.08c1.19,0,2.16.97,2.16,2.16c0,.17-.03.34-.06.5.25-.08.51-.14.78-.14c1.39,0,2.52,1.13,2.52,2.52c0,.52-.16,1-.42,1.39.91.65,1.5,1.71,1.5,2.92c0,1.98-1.61,3.59-3.59,3.59-.25,0-.49-.03-.73-.07c0,.02,0,.05,0,.07c0,1.19-.97,2.16-2.16,2.16s-2.16-.97-2.16-2.16v-10.78c0-1.19.97-2.16,2.16-2.16" fill="#fff" stroke="#014359" stroke-width="0.75" stroke-linecap="round" stroke-miterlimit="10"/></g><g><path d="M119.79,90.08c-1.19,0-2.16.97-2.16,2.16c0,.17.03.34.06.5-.25-.08-.51-.14-.78-.14-1.39,0-2.52,1.13-2.52,2.52c0,.52.16,1,.42,1.39-.91.65-1.5,1.71-1.5,2.92c0,1.98,1.61,3.59,3.59,3.59.25,0,.49-.03.73-.07c0,.02,0,.05,0,.07c0,1.19.97,2.16,2.16,2.16s2.16-.97,2.16-2.16v-10.78c0-1.19-.97-2.16-2.16-2.16" fill="#fff" stroke="#014359" stroke-width="0.75" stroke-linecap="round" stroke-miterlimit="10"/><path d="M125.29,90.08c1.19,0,2.16.97,2.16,2.16c0,.17-.03.34-.06.5.25-.08.51-.14.78-.14c1.39,0,2.52,1.13,2.52,2.52c0,.52-.16,1-.42,1.39.91.65,1.5,1.71,1.5,2.92c0,1.98-1.61,3.59-3.59,3.59-.25,0-.49-.03-.73-.07c0,.02,0,.05,0,.07c0,1.19-.97,2.16-2.16,2.16s-2.16-.97-2.16-2.16v-10.78c0-1.19.97-2.16,2.16-2.16" fill="#fff" stroke="#014359" stroke-width="0.75" stroke-linecap="round" stroke-miterlimit="10"/></g></g></g></g><g><path d="M183.72,232.77c.19-1.87.88-9.91-.36-10.91-2.61-2.09-8.56-.59-11.68-1.77-4.02-1.53-6.79-8.46-8.21-12.24-2.57-6.84-4.26-10.16-4.42-17.46-7.36-1.45-12.83-6.4-8.68-14.21c3.55-6.68,8.43-10.16,10.49-17.82c5.09-19.02,3.25-30.77,23.61-39.71c17.92-7.87,36.34-7.34,53.08,3.51c33.02,21.4,17.87,63.31,5.68,75.58-9.58,9.65-6.33,39.4-6.33,39.4s-46.31.24-53.77-.01c.07-1.17.44-2.78.59-4.35Z" fill="#ebebe7" fill-rule="evenodd" stroke="#014359" stroke-width="2" stroke-miterlimit="10"/><g id="ezE0J8RLaOd19_tr" transform="translate(177.644997,166.356804) rotate(20.224786)"><path d="M172.01,164.05c0,0,3.82,6.86,11.27,3.85" transform="translate(-177.644997,-166.356804)" fill="#ebebe7" fill-rule="evenodd" stroke="#014359" stroke-width="2" stroke-linecap="round" stroke-miterlimit="10"/></g></g></svg>
