<svg version="1.2" xmlns="http://www.w3.org/2000/svg" viewBox="0 0 1920 868" width="1920" height="868"><defs><clipPath clipPathUnits="userSpaceOnUse" id="cp1"><path d="m0 0h1920v868h-1920z"/></clipPath><clipPath clipPathUnits="userSpaceOnUse" id="cp2"><path d="m0 0h1920v868h-1920z"/></clipPath></defs><style>.a{fill:#142837}.b{fill:none;stroke:#142837;stroke-width:1.5}</style><g clip-path="url(#cp1)"><path class="a" d="m2091.5 711.1c25.7 153.1 133.2 219.5 233.9 337.7 253.9 297.9 138.2 771.6-144 849.7-287.4 79.6-65.7 486.9-540.3 610.1-688 178.7-1156.5-198.4-1323.1-661.9-114.9-319.5-69.1-391.2-312.9-535.1-524.8-309.6-275.9-1101.8 131.6-1232.3 92.2-29.4 243.3-92.2 768.3-21.1 346.5 46.9 634-154.8 911.9 34.6 277.8 189.5 248.8 464.8 274.6 618.3z"/></g><g clip-path="url(#cp2)"><path class="b" d="m2215.6 705.7c25.7 153 133.3 219.5 233.9 337.6 254 298 138.3 771.7-144 849.8-287.3 79.5-65.7 486.9-540.3 610.1-688 178.6-1156.5-198.5-1323.1-662-114.8-319.4-69.1-391.2-312.9-535-524.8-309.7-275.8-1101.8 131.6-1232.3 92.2-29.5 243.3-92.2 768.3-21.1 346.5 46.9 634-154.8 911.9 34.6 277.8 189.4 248.8 464.7 274.6 618.3z"/></g></svg>